<?xml version="1.0" encoding="UTF-8" standalone="no"?>
<!DOCTYPE svg PUBLIC "-//W3C//DTD SVG 1.1//EN"
 "http://www.w3.org/Graphics/SVG/1.1/DTD/svg11.dtd">
<!-- Generated by graphviz version 14.1.2 (20260124.0452)
 -->
<!-- Pages: 1 -->
<svg width="3484pt" height="368pt"
 viewBox="0.00 0.00 3484.00 368.00" xmlns="http://www.w3.org/2000/svg" xmlns:xlink="http://www.w3.org/1999/xlink">
<g id="graph0" class="graph" transform="scale(1 1) rotate(0) translate(4 364)">
<polygon fill="white" stroke="none" points="-4,4 -4,-364 3479.75,-364 3479.75,4 -4,4"/>
<!-- 1867779426512 -->
<g id="node1" class="node">
<title>1867779426512</title>
<polygon fill="white" stroke="black" points="160.75,-67 90,-67 90,-31 160.75,-31 160.75,-67"/>
<text xml:space="preserve" text-anchor="middle" x="125.38" y="-44.73" font-family="Times New Roman,serif" font-size="12.00">Create Fine</text>
</g>
<!-- 1867779479968 -->
<g id="node27" class="node">
<title>1867779479968</title>
<ellipse fill="white" stroke="black" cx="223.75" cy="-49" rx="27" ry="27"/>
</g>
<!-- 1867779426512&#45;&gt;1867779479968 -->
<g id="edge2" class="edge">
<title>1867779426512&#45;&gt;1867779479968</title>
<path fill="none" stroke="black" d="M161.17,-49C168.9,-49 177.14,-49 184.98,-49"/>
<polygon fill="black" stroke="black" points="184.97,-52.5 194.97,-49 184.97,-45.5 184.97,-52.5"/>
</g>
<!-- 1867779315264 -->
<g id="node2" class="node">
<title>1867779315264</title>
<polygon fill="white" stroke="black" points="350.75,-94 286.75,-94 286.75,-58 350.75,-58 350.75,-94"/>
<text xml:space="preserve" text-anchor="middle" x="318.75" y="-71.72" font-family="Times New Roman,serif" font-size="12.00">Send Fine</text>
</g>
<!-- 1867779475792 -->
<g id="node29" class="node">
<title>1867779475792</title>
<ellipse fill="white" stroke="black" cx="413.75" cy="-81" rx="27" ry="27"/>
</g>
<!-- 1867779315264&#45;&gt;1867779475792 -->
<g id="edge5" class="edge">
<title>1867779315264&#45;&gt;1867779475792</title>
<path fill="none" stroke="black" d="M351.24,-77.69C358.95,-78.11 367.29,-78.56 375.26,-78.98"/>
<polygon fill="black" stroke="black" points="374.87,-82.47 385.05,-79.51 375.25,-75.48 374.87,-82.47"/>
</g>
<!-- 1867779556048 -->
<g id="node3" class="node">
<title>1867779556048</title>
<polygon fill="black" stroke="black" points="440.75,-36 386.75,-36 386.75,0 440.75,0 440.75,-36"/>
</g>
<!-- 1867779476368 -->
<g id="node28" class="node">
<title>1867779476368</title>
<ellipse fill="white" stroke="black" cx="2897.5" cy="-128" rx="27" ry="27"/>
</g>
<!-- 1867779556048&#45;&gt;1867779476368 -->
<g id="edge6" class="edge">
<title>1867779556048&#45;&gt;1867779476368</title>
<path fill="none" stroke="black" d="M440.97,-18C486.43,-18 582.82,-18 664.25,-18 664.25,-18 664.25,-18 2718.5,-18 2773.96,-18 2788.4,-33.17 2834.5,-64 2848.68,-73.48 2862.14,-86.66 2872.88,-98.6"/>
<polygon fill="black" stroke="black" points="2869.99,-100.61 2879.19,-105.86 2875.27,-96.02 2869.99,-100.61"/>
</g>
<!-- 1867779506256 -->
<g id="node4" class="node">
<title>1867779506256</title>
<polygon fill="white" stroke="black" points="3017.75,-146 2960.5,-146 2960.5,-110 3017.75,-110 3017.75,-146"/>
<text xml:space="preserve" text-anchor="middle" x="2989.12" y="-123.72" font-family="Times New Roman,serif" font-size="12.00">Payment</text>
</g>
<!-- 1867779475504 -->
<g id="node30" class="node">
<title>1867779475504</title>
<ellipse fill="white" stroke="black" cx="3080.75" cy="-128" rx="27" ry="27"/>
</g>
<!-- 1867779506256&#45;&gt;1867779475504 -->
<g id="edge11" class="edge">
<title>1867779506256&#45;&gt;1867779475504</title>
<path fill="none" stroke="black" d="M3017.99,-128C3025.59,-128 3033.94,-128 3041.99,-128"/>
<polygon fill="black" stroke="black" points="3041.92,-131.5 3051.92,-128 3041.92,-124.5 3041.92,-131.5"/>
</g>
<!-- 1867779027200 -->
<g id="node5" class="node">
<title>1867779027200</title>
<polygon fill="white" stroke="black" points="602.25,-148 476.75,-148 476.75,-112 602.25,-112 602.25,-148"/>
<text xml:space="preserve" text-anchor="middle" x="539.5" y="-125.72" font-family="Times New Roman,serif" font-size="12.00">Insert Fine Notification</text>
</g>
<!-- 1867779473488 -->
<g id="node31" class="node">
<title>1867779473488</title>
<ellipse fill="white" stroke="black" cx="665.25" cy="-139" rx="27" ry="27"/>
</g>
<!-- 1867779027200&#45;&gt;1867779473488 -->
<g id="edge12" class="edge">
<title>1867779027200&#45;&gt;1867779473488</title>
<path fill="none" stroke="black" d="M602.74,-134.53C610.87,-135.12 619,-135.71 626.56,-136.26"/>
<polygon fill="black" stroke="black" points="626.15,-139.74 636.37,-136.97 626.65,-132.76 626.15,-139.74"/>
</g>
<!-- 1867779340112 -->
<g id="node6" class="node">
<title>1867779340112</title>
<polygon fill="black" stroke="black" points="692.25,-90 638.25,-90 638.25,-54 692.25,-54 692.25,-90"/>
</g>
<!-- 1867779340112&#45;&gt;1867779476368 -->
<g id="edge10" class="edge">
<title>1867779340112&#45;&gt;1867779476368</title>
<path fill="none" stroke="black" d="M692.52,-68.53C730.47,-63.82 802.86,-56 864.75,-56 864.75,-56 864.75,-56 2718.5,-56 2773.26,-56 2831.04,-85.65 2865.42,-106.9"/>
<polygon fill="black" stroke="black" points="2863.29,-109.69 2873.61,-112.1 2867.04,-103.78 2863.29,-109.69"/>
</g>
<!-- 1867779339792 -->
<g id="node7" class="node">
<title>1867779339792</title>
<polygon fill="black" stroke="black" points="892.75,-166 838.75,-166 838.75,-130 892.75,-130 892.75,-166"/>
</g>
<!-- 1867779481840 -->
<g id="node34" class="node">
<title>1867779481840</title>
<ellipse fill="white" stroke="black" cx="1045.75" cy="-241" rx="27" ry="27"/>
</g>
<!-- 1867779339792&#45;&gt;1867779481840 -->
<g id="edge21" class="edge">
<title>1867779339792&#45;&gt;1867779481840</title>
<path fill="none" stroke="black" d="M893.01,-161.72C924.39,-178.12 976.93,-205.57 1011.21,-223.48"/>
<polygon fill="black" stroke="black" points="1009.4,-226.48 1019.88,-228.01 1012.64,-220.27 1009.4,-226.48"/>
</g>
<!-- 1867779557008 -->
<g id="node8" class="node">
<title>1867779557008</title>
<polygon fill="black" stroke="black" points="3197.75,-147 3143.75,-147 3143.75,-111 3197.75,-111 3197.75,-147"/>
</g>
<!-- 1867779474496 -->
<g id="node33" class="node">
<title>1867779474496</title>
<ellipse fill="white" stroke="black" cx="3260.75" cy="-229" rx="27" ry="27"/>
</g>
<!-- 1867779557008&#45;&gt;1867779474496 -->
<g id="edge20" class="edge">
<title>1867779557008&#45;&gt;1867779474496</title>
<path fill="none" stroke="black" d="M3189.81,-147.45C3192.5,-150.28 3195.22,-153.2 3197.75,-156 3210.44,-170.03 3224.09,-186 3235.35,-199.42"/>
<polygon fill="black" stroke="black" points="3232.65,-201.65 3241.75,-207.09 3238.03,-197.17 3232.65,-201.65"/>
</g>
<!-- 1867779561168 -->
<g id="node9" class="node">
<title>1867779561168</title>
<polygon fill="black" stroke="black" points="1072.75,-120 1018.75,-120 1018.75,-84 1072.75,-84 1072.75,-120"/>
</g>
<!-- 1867779561168&#45;&gt;1867779476368 -->
<g id="edge18" class="edge">
<title>1867779561168&#45;&gt;1867779476368</title>
<path fill="none" stroke="black" d="M1073.02,-100.68C1120.54,-98.41 1223.96,-94 1311.25,-94 1311.25,-94 1311.25,-94 2718.5,-94 2768.46,-94 2824.94,-107.08 2860.62,-117.02"/>
<polygon fill="black" stroke="black" points="2859.41,-120.31 2869.98,-119.7 2861.33,-113.58 2859.41,-120.31"/>
</g>
<!-- 1867779560208 -->
<g id="node10" class="node">
<title>1867779560208</title>
<polygon fill="black" stroke="black" points="3197.75,-201 3143.75,-201 3143.75,-165 3197.75,-165 3197.75,-201"/>
</g>
<!-- 1867779560208&#45;&gt;1867779476368 -->
<g id="edge19" class="edge">
<title>1867779560208&#45;&gt;1867779476368</title>
<path fill="none" stroke="black" d="M3143.51,-181.82C3103.41,-179.51 3024.76,-172.91 2960.5,-155 2951.17,-152.4 2941.42,-148.67 2932.49,-144.82"/>
<polygon fill="black" stroke="black" points="2934.01,-141.66 2923.46,-140.73 2931.13,-148.04 2934.01,-141.66"/>
</g>
<!-- 1867779151248 -->
<g id="node11" class="node">
<title>1867779151248</title>
<polygon fill="white" stroke="black" points="802.75,-226 728.25,-226 728.25,-190 802.75,-190 802.75,-226"/>
<text xml:space="preserve" text-anchor="middle" x="765.5" y="-203.72" font-family="Times New Roman,serif" font-size="12.00">Add penalty</text>
</g>
<!-- 1867779475216 -->
<g id="node32" class="node">
<title>1867779475216</title>
<ellipse fill="white" stroke="black" cx="865.75" cy="-226" rx="27" ry="27"/>
</g>
<!-- 1867779151248&#45;&gt;1867779475216 -->
<g id="edge22" class="edge">
<title>1867779151248&#45;&gt;1867779475216</title>
<path fill="none" stroke="black" d="M803.08,-214.7C811.08,-216.17 819.54,-217.72 827.56,-219.19"/>
<polygon fill="black" stroke="black" points="826.91,-222.63 837.38,-220.99 828.17,-215.74 826.91,-222.63"/>
</g>
<!-- 1867779560528 -->
<g id="node12" class="node">
<title>1867779560528</title>
<polygon fill="black" stroke="black" points="982.75,-255 928.75,-255 928.75,-219 982.75,-219 982.75,-255"/>
</g>
<!-- 1867779560528&#45;&gt;1867779481840 -->
<g id="edge30" class="edge">
<title>1867779560528&#45;&gt;1867779481840</title>
<path fill="none" stroke="black" d="M983.15,-238.2C990.64,-238.54 998.93,-238.92 1006.95,-239.28"/>
<polygon fill="black" stroke="black" points="1006.71,-242.77 1016.85,-239.73 1007.02,-235.78 1006.71,-242.77"/>
</g>
<!-- 1867778956496 -->
<g id="node13" class="node">
<title>1867778956496</title>
<polygon fill="white" stroke="black" points="1249.25,-360 1108.75,-360 1108.75,-324 1249.25,-324 1249.25,-360"/>
<text xml:space="preserve" text-anchor="middle" x="1179" y="-337.73" font-family="Times New Roman,serif" font-size="12.00">Send for Credit Collection</text>
</g>
<!-- 1867778956496&#45;&gt;1867779474496 -->
<g id="edge29" class="edge">
<title>1867778956496&#45;&gt;1867779474496</title>
<path fill="none" stroke="black" d="M1249.69,-340.44C1305.91,-339.32 1387.04,-338 1458,-338 1458,-338 1458,-338 3081.75,-338 3143.62,-338 3202.14,-289.51 3234.26,-257.22"/>
<polygon fill="black" stroke="black" points="3236.73,-259.7 3241.17,-250.08 3231.7,-254.83 3236.73,-259.7"/>
</g>
<!-- 1867779339472 -->
<g id="node14" class="node">
<title>1867779339472</title>
<polygon fill="black" stroke="black" points="1206,-259 1152,-259 1152,-223 1206,-223 1206,-259"/>
</g>
<!-- 1867779481984 -->
<g id="node35" class="node">
<title>1867779481984</title>
<ellipse fill="white" stroke="black" cx="1312.25" cy="-241" rx="27" ry="27"/>
</g>
<!-- 1867779339472&#45;&gt;1867779481984 -->
<g id="edge31" class="edge">
<title>1867779339472&#45;&gt;1867779481984</title>
<path fill="none" stroke="black" d="M1206.24,-241C1225.56,-241 1252.1,-241 1273.66,-241"/>
<polygon fill="black" stroke="black" points="1273.54,-244.5 1283.54,-241 1273.54,-237.5 1273.54,-244.5"/>
</g>
<!-- 1867779561808 -->
<g id="node15" class="node">
<title>1867779561808</title>
<polygon fill="black" stroke="black" points="1339.25,-177 1285.25,-177 1285.25,-141 1339.25,-141 1339.25,-177"/>
</g>
<!-- 1867779561808&#45;&gt;1867779476368 -->
<g id="edge28" class="edge">
<title>1867779561808&#45;&gt;1867779476368</title>
<path fill="none" stroke="black" d="M1339.41,-155.19C1392.83,-147.75 1518.38,-132 1624.38,-132 1624.38,-132 1624.38,-132 2718.5,-132 2766.96,-132 2822.82,-130.5 2858.85,-129.34"/>
<polygon fill="black" stroke="black" points="2858.87,-132.84 2868.75,-129.01 2858.64,-125.84 2858.87,-132.84"/>
</g>
<!-- 1867778729904 -->
<g id="node16" class="node">
<title>1867778729904</title>
<polygon fill="black" stroke="black" points="3377.75,-247 3323.75,-247 3323.75,-211 3377.75,-211 3377.75,-247"/>
</g>
<!-- 1867779150288 -->
<g id="node36" class="node">
<title>1867779150288</title>
<ellipse fill="white" stroke="black" cx="3444.75" cy="-229" rx="27" ry="27"/>
<ellipse fill="none" stroke="black" cx="3444.75" cy="-229" rx="31" ry="31"/>
<text xml:space="preserve" text-anchor="start" x="3435" y="-216.97" font-family="Times New Roman,serif" font-size="32.00">■</text>
</g>
<!-- 1867778729904&#45;&gt;1867779150288 -->
<g id="edge32" class="edge">
<title>1867778729904&#45;&gt;1867779150288</title>
<path fill="none" stroke="black" d="M3377.87,-229C3385.38,-229 3393.76,-229 3401.97,-229"/>
<polygon fill="black" stroke="black" points="3401.83,-232.5 3411.83,-229 3401.83,-225.5 3401.83,-232.5"/>
</g>
<!-- 1867779502416 -->
<g id="node17" class="node">
<title>1867779502416</title>
<polygon fill="white" stroke="black" points="1542.75,-259 1375.25,-259 1375.25,-223 1542.75,-223 1542.75,-259"/>
<text xml:space="preserve" text-anchor="middle" x="1459" y="-236.72" font-family="Times New Roman,serif" font-size="12.00">Insert Date Appeal to Prefecture</text>
</g>
<!-- 1867779481264 -->
<g id="node37" class="node">
<title>1867779481264</title>
<ellipse fill="white" stroke="black" cx="1625.38" cy="-241" rx="27" ry="27"/>
</g>
<!-- 1867779502416&#45;&gt;1867779481264 -->
<g id="edge36" class="edge">
<title>1867779502416&#45;&gt;1867779481264</title>
<path fill="none" stroke="black" d="M1543.15,-241C1558.39,-241 1573.59,-241 1586.65,-241"/>
<polygon fill="black" stroke="black" points="1586.46,-244.5 1596.46,-241 1586.46,-237.5 1586.46,-244.5"/>
</g>
<!-- 1867779503984 -->
<g id="node18" class="node">
<title>1867779503984</title>
<polygon fill="white" stroke="black" points="1672,-196 1578.75,-196 1578.75,-160 1672,-160 1672,-196"/>
<text xml:space="preserve" text-anchor="middle" x="1625.38" y="-173.72" font-family="Times New Roman,serif" font-size="12.00">Appeal to Judge</text>
</g>
<!-- 1867779475936 -->
<g id="node38" class="node">
<title>1867779475936</title>
<ellipse fill="white" stroke="black" cx="2537.5" cy="-229" rx="27" ry="27"/>
</g>
<!-- 1867779503984&#45;&gt;1867779475936 -->
<g id="edge35" class="edge">
<title>1867779503984&#45;&gt;1867779475936</title>
<path fill="none" stroke="black" d="M1672.02,-178.26C1728.02,-178.56 1825.87,-179 1909.75,-179 1909.75,-179 1909.75,-179 2238.25,-179 2343.75,-179 2372.39,-175.5 2474.5,-202 2483.87,-204.43 2493.64,-208.1 2502.58,-211.95"/>
<polygon fill="black" stroke="black" points="2501.05,-215.1 2511.6,-216.05 2503.94,-208.73 2501.05,-215.1"/>
</g>
<!-- 1867779339312 -->
<g id="node19" class="node">
<title>1867779339312</title>
<polygon fill="white" stroke="black" points="1847.75,-258 1708,-258 1708,-222 1847.75,-222 1847.75,-258"/>
<text xml:space="preserve" text-anchor="middle" x="1777.88" y="-235.72" font-family="Times New Roman,serif" font-size="12.00">Send Appeal to Prefecture</text>
</g>
<!-- 1867779482416 -->
<g id="node39" class="node">
<title>1867779482416</title>
<ellipse fill="white" stroke="black" cx="1910.75" cy="-238" rx="27" ry="27"/>
</g>
<!-- 1867779339312&#45;&gt;1867779482416 -->
<g id="edge40" class="edge">
<title>1867779339312&#45;&gt;1867779482416</title>
<path fill="none" stroke="black" d="M1848.14,-238.94C1856.35,-238.82 1864.48,-238.69 1872.01,-238.58"/>
<polygon fill="black" stroke="black" points="1871.81,-242.08 1881.76,-238.43 1871.7,-235.08 1871.81,-242.08"/>
</g>
<!-- 1867778384880 -->
<g id="node20" class="node">
<title>1867778384880</title>
<polygon fill="black" stroke="black" points="2654.5,-247 2600.5,-247 2600.5,-211 2654.5,-211 2654.5,-247"/>
</g>
<!-- 1867779476080 -->
<g id="node40" class="node">
<title>1867779476080</title>
<ellipse fill="white" stroke="black" cx="2717.5" cy="-229" rx="27" ry="27"/>
</g>
<!-- 1867778384880&#45;&gt;1867779476080 -->
<g id="edge39" class="edge">
<title>1867778384880&#45;&gt;1867779476080</title>
<path fill="none" stroke="black" d="M2654.9,-229C2662.39,-229 2670.68,-229 2678.7,-229"/>
<polygon fill="black" stroke="black" points="2678.6,-232.5 2688.6,-229 2678.6,-225.5 2678.6,-232.5"/>
</g>
<!-- 1867779559248 -->
<g id="node21" class="node">
<title>1867779559248</title>
<polygon fill="black" stroke="black" points="2924.5,-247 2870.5,-247 2870.5,-211 2924.5,-211 2924.5,-247"/>
</g>
<!-- 1867779559248&#45;&gt;1867779474496 -->
<g id="edge46" class="edge">
<title>1867779559248&#45;&gt;1867779474496</title>
<path fill="none" stroke="black" d="M2924.77,-229C2987.98,-229 3148.75,-229 3222.16,-229"/>
<polygon fill="black" stroke="black" points="3222.06,-232.5 3232.06,-229 3222.06,-225.5 3222.06,-232.5"/>
</g>
<!-- 1867779556688 -->
<g id="node22" class="node">
<title>1867779556688</title>
<polygon fill="black" stroke="black" points="2834.5,-306 2780.5,-306 2780.5,-270 2834.5,-270 2834.5,-306"/>
</g>
<!-- 1867779556688&#45;&gt;1867779481840 -->
<g id="edge47" class="edge">
<title>1867779556688&#45;&gt;1867779481840</title>
<path fill="none" stroke="black" d="M2780.28,-289.92C2745.57,-292.28 2682.48,-296 2628.5,-296 1311.25,-296 1311.25,-296 1311.25,-296 1220.39,-296 1196.22,-292.59 1108.75,-268 1099.43,-265.38 1089.68,-261.65 1080.74,-257.79"/>
<polygon fill="black" stroke="black" points="1082.27,-254.63 1071.71,-253.71 1079.39,-261.01 1082.27,-254.63"/>
</g>
<!-- 1867779339632 -->
<g id="node23" class="node">
<title>1867779339632</title>
<polygon fill="white" stroke="black" points="2174.25,-255 1973.75,-255 1973.75,-219 2174.25,-219 2174.25,-255"/>
<text xml:space="preserve" text-anchor="middle" x="2074" y="-232.72" font-family="Times New Roman,serif" font-size="12.00">Receive Result Appeal from Prefecture</text>
</g>
<!-- 1867779479248 -->
<g id="node41" class="node">
<title>1867779479248</title>
<ellipse fill="white" stroke="black" cx="2237.25" cy="-236" rx="27" ry="27"/>
</g>
<!-- 1867779339632&#45;&gt;1867779479248 -->
<g id="edge48" class="edge">
<title>1867779339632&#45;&gt;1867779479248</title>
<path fill="none" stroke="black" d="M2174.37,-236.38C2182.77,-236.33 2190.89,-236.28 2198.33,-236.24"/>
<polygon fill="black" stroke="black" points="2198.27,-239.74 2208.24,-236.17 2198.22,-232.74 2198.27,-239.74"/>
</g>
<!-- 1867779560848 -->
<g id="node24" class="node">
<title>1867779560848</title>
<polygon fill="black" stroke="black" points="2834.5,-199 2780.5,-199 2780.5,-163 2834.5,-163 2834.5,-199"/>
</g>
<!-- 1867779560848&#45;&gt;1867779476368 -->
<g id="edge45" class="edge">
<title>1867779560848&#45;&gt;1867779476368</title>
<path fill="none" stroke="black" d="M2834.9,-165.1C2844.07,-159.58 2854.46,-153.32 2864.06,-147.54"/>
<polygon fill="black" stroke="black" points="2865.63,-150.68 2872.39,-142.52 2862.02,-144.68 2865.63,-150.68"/>
</g>
<!-- 1867778956688 -->
<g id="node25" class="node">
<title>1867778956688</title>
<polygon fill="white" stroke="black" points="2474.5,-247 2300.25,-247 2300.25,-211 2474.5,-211 2474.5,-247"/>
<text xml:space="preserve" text-anchor="middle" x="2387.38" y="-224.72" font-family="Times New Roman,serif" font-size="12.00">Notify Result Appeal to Offender</text>
</g>
<!-- 1867778956688&#45;&gt;1867779475936 -->
<g id="edge50" class="edge">
<title>1867778956688&#45;&gt;1867779475936</title>
<path fill="none" stroke="black" d="M2474.97,-229C2483.26,-229 2491.34,-229 2498.77,-229"/>
<polygon fill="black" stroke="black" points="2498.7,-232.5 2508.7,-229 2498.7,-225.5 2498.7,-232.5"/>
</g>
<!-- 1867778858960 -->
<g id="node26" class="node">
<title>1867778858960</title>
<ellipse fill="white" stroke="black" cx="27" cy="-49" rx="27" ry="27"/>
<text xml:space="preserve" text-anchor="start" x="16.88" y="-35.83" font-family="Times New Roman,serif" font-size="34.00">●</text>
</g>
<!-- 1867778858960&#45;&gt;1867779426512 -->
<g id="edge1" class="edge">
<title>1867778858960&#45;&gt;1867779426512</title>
<path fill="none" stroke="black" d="M54.33,-49C61.76,-49 70.06,-49 78.28,-49"/>
<polygon fill="black" stroke="black" points="78.24,-52.5 88.24,-49 78.24,-45.5 78.24,-52.5"/>
</g>
<!-- 1867779479968&#45;&gt;1867779315264 -->
<g id="edge3" class="edge">
<title>1867779479968&#45;&gt;1867779315264</title>
<path fill="none" stroke="black" d="M250.16,-56.38C258.03,-58.66 266.91,-61.24 275.6,-63.76"/>
<polygon fill="black" stroke="black" points="274.36,-67.05 284.94,-66.47 276.31,-60.33 274.36,-67.05"/>
</g>
<!-- 1867779479968&#45;&gt;1867779556048 -->
<g id="edge4" class="edge">
<title>1867779479968&#45;&gt;1867779556048</title>
<path fill="none" stroke="black" d="M250.89,-44.69C283.21,-39.36 338.45,-30.25 375.27,-24.18"/>
<polygon fill="black" stroke="black" points="375.74,-27.65 385.04,-22.57 374.6,-20.74 375.74,-27.65"/>
</g>
<!-- 1867779476368&#45;&gt;1867779506256 -->
<g id="edge8" class="edge">
<title>1867779476368&#45;&gt;1867779506256</title>
<path fill="none" stroke="black" d="M2924.91,-128C2932.33,-128 2940.57,-128 2948.58,-128"/>
<polygon fill="black" stroke="black" points="2948.52,-131.5 2958.52,-128 2948.52,-124.5 2948.52,-131.5"/>
</g>
<!-- 1867779475792&#45;&gt;1867779027200 -->
<g id="edge7" class="edge">
<title>1867779475792&#45;&gt;1867779027200</title>
<path fill="none" stroke="black" d="M439.2,-90.68C451.27,-95.46 466.39,-101.45 481.16,-107.3"/>
<polygon fill="black" stroke="black" points="479.81,-110.53 490.4,-110.95 482.39,-104.02 479.81,-110.53"/>
</g>
<!-- 1867779475792&#45;&gt;1867779340112 -->
<g id="edge9" class="edge">
<title>1867779475792&#45;&gt;1867779340112</title>
<path fill="none" stroke="black" d="M440.98,-80.05C485.43,-78.45 575.72,-75.19 626.81,-73.35"/>
<polygon fill="black" stroke="black" points="626.62,-76.86 636.49,-73 626.37,-69.86 626.62,-76.86"/>
</g>
<!-- 1867779475504&#45;&gt;1867779557008 -->
<g id="edge14" class="edge">
<title>1867779475504&#45;&gt;1867779557008</title>
<path fill="none" stroke="black" d="M3108.15,-128.3C3115.64,-128.39 3123.93,-128.48 3131.95,-128.57"/>
<polygon fill="black" stroke="black" points="3131.81,-132.07 3141.85,-128.68 3131.89,-125.07 3131.81,-132.07"/>
</g>
<!-- 1867779475504&#45;&gt;1867779560208 -->
<g id="edge16" class="edge">
<title>1867779475504&#45;&gt;1867779560208</title>
<path fill="none" stroke="black" d="M3103.96,-141.88C3113.06,-147.57 3123.83,-154.3 3134,-160.65"/>
<polygon fill="black" stroke="black" points="3131.86,-163.45 3142.2,-165.78 3135.57,-157.51 3131.86,-163.45"/>
</g>
<!-- 1867779473488&#45;&gt;1867779339792 -->
<g id="edge15" class="edge">
<title>1867779473488&#45;&gt;1867779339792</title>
<path fill="none" stroke="black" d="M692.61,-140.2C727.02,-141.76 787.47,-144.5 826.8,-146.28"/>
<polygon fill="black" stroke="black" points="826.62,-149.77 836.77,-146.73 826.94,-142.78 826.62,-149.77"/>
</g>
<!-- 1867779473488&#45;&gt;1867779561168 -->
<g id="edge13" class="edge">
<title>1867779473488&#45;&gt;1867779561168</title>
<path fill="none" stroke="black" d="M692.54,-136.16C726.36,-132.52 786.91,-126.1 838.75,-121 897.47,-115.23 965.66,-109.04 1006.98,-105.35"/>
<polygon fill="black" stroke="black" points="1007.24,-108.84 1016.89,-104.46 1006.62,-101.86 1007.24,-108.84"/>
</g>
<!-- 1867779473488&#45;&gt;1867779151248 -->
<g id="edge17" class="edge">
<title>1867779473488&#45;&gt;1867779151248</title>
<path fill="none" stroke="black" d="M688.05,-154.31C700.09,-162.77 715.33,-173.47 729.03,-183.09"/>
<polygon fill="black" stroke="black" points="726.78,-185.79 736.98,-188.67 730.8,-180.06 726.78,-185.79"/>
</g>
<!-- 1867779475216&#45;&gt;1867779560528 -->
<g id="edge27" class="edge">
<title>1867779475216&#45;&gt;1867779560528</title>
<path fill="none" stroke="black" d="M892.68,-229.24C900.33,-230.2 908.86,-231.26 917.09,-232.29"/>
<polygon fill="black" stroke="black" points="916.54,-235.75 926.9,-233.52 917.41,-228.81 916.54,-235.75"/>
</g>
<!-- 1867779475216&#45;&gt;1867778956496 -->
<g id="edge25" class="edge">
<title>1867779475216&#45;&gt;1867778956496</title>
<path fill="none" stroke="black" d="M888.4,-241.1C899.99,-248.7 914.73,-257.63 928.75,-264 983.15,-288.72 1047.59,-308.66 1097.32,-322.19"/>
<polygon fill="black" stroke="black" points="1096.31,-325.54 1106.88,-324.76 1098.13,-318.78 1096.31,-325.54"/>
</g>
<!-- 1867779475216&#45;&gt;1867779561808 -->
<g id="edge26" class="edge">
<title>1867779475216&#45;&gt;1867779561808</title>
<path fill="none" stroke="black" d="M892.23,-218.69C903.37,-215.68 916.64,-212.36 928.75,-210 1054.31,-185.52 1205.37,-169.18 1274.03,-162.46"/>
<polygon fill="black" stroke="black" points="1273.98,-165.98 1283.6,-161.54 1273.31,-159.02 1273.98,-165.98"/>
</g>
<!-- 1867779474496&#45;&gt;1867778729904 -->
<g id="edge23" class="edge">
<title>1867779474496&#45;&gt;1867778729904</title>
<path fill="none" stroke="black" d="M3288.15,-229C3295.64,-229 3303.93,-229 3311.95,-229"/>
<polygon fill="black" stroke="black" points="3311.85,-232.5 3321.85,-229 3311.85,-225.5 3311.85,-232.5"/>
</g>
<!-- 1867779481840&#45;&gt;1867779339472 -->
<g id="edge24" class="edge">
<title>1867779481840&#45;&gt;1867779339472</title>
<path fill="none" stroke="black" d="M1072.99,-241C1092.31,-241 1118.85,-241 1140.41,-241"/>
<polygon fill="black" stroke="black" points="1140.29,-244.5 1150.29,-241 1140.29,-237.5 1140.29,-244.5"/>
</g>
<!-- 1867779481984&#45;&gt;1867779502416 -->
<g id="edge33" class="edge">
<title>1867779481984&#45;&gt;1867779502416</title>
<path fill="none" stroke="black" d="M1339.46,-241C1346.68,-241 1354.95,-241 1363.69,-241"/>
<polygon fill="black" stroke="black" points="1363.46,-244.5 1373.46,-241 1363.46,-237.5 1363.46,-244.5"/>
</g>
<!-- 1867779481984&#45;&gt;1867779503984 -->
<g id="edge34" class="edge">
<title>1867779481984&#45;&gt;1867779503984</title>
<path fill="none" stroke="black" d="M1336.84,-228.95C1348.19,-223.62 1362.15,-217.73 1375.25,-214 1439.59,-195.7 1516.06,-186.41 1567.15,-181.9"/>
<polygon fill="black" stroke="black" points="1567.43,-185.39 1577.1,-181.06 1566.84,-178.42 1567.43,-185.39"/>
</g>
<!-- 1867779481264&#45;&gt;1867779339312 -->
<g id="edge38" class="edge">
<title>1867779481264&#45;&gt;1867779339312</title>
<path fill="none" stroke="black" d="M1652.59,-240.83C1664.92,-240.74 1680.37,-240.64 1696.14,-240.54"/>
<polygon fill="black" stroke="black" points="1696.15,-244.04 1706.13,-240.47 1696.1,-237.04 1696.15,-244.04"/>
</g>
<!-- 1867779475936&#45;&gt;1867778384880 -->
<g id="edge37" class="edge">
<title>1867779475936&#45;&gt;1867778384880</title>
<path fill="none" stroke="black" d="M2564.9,-229C2572.39,-229 2580.68,-229 2588.7,-229"/>
<polygon fill="black" stroke="black" points="2588.6,-232.5 2598.6,-229 2588.6,-225.5 2588.6,-232.5"/>
</g>
<!-- 1867779482416&#45;&gt;1867779339632 -->
<g id="edge42" class="edge">
<title>1867779482416&#45;&gt;1867779339632</title>
<path fill="none" stroke="black" d="M1938.02,-237.84C1945.17,-237.79 1953.39,-237.74 1962.17,-237.69"/>
<polygon fill="black" stroke="black" points="1962.06,-241.19 1972.04,-237.63 1962.02,-234.19 1962.06,-241.19"/>
</g>
<!-- 1867779476080&#45;&gt;1867779559248 -->
<g id="edge44" class="edge">
<title>1867779476080&#45;&gt;1867779559248</title>
<path fill="none" stroke="black" d="M2744.76,-229C2774.87,-229 2824.46,-229 2858.71,-229"/>
<polygon fill="black" stroke="black" points="2858.61,-232.5 2868.61,-229 2858.61,-225.5 2858.61,-232.5"/>
</g>
<!-- 1867779476080&#45;&gt;1867779556688 -->
<g id="edge43" class="edge">
<title>1867779476080&#45;&gt;1867779556688</title>
<path fill="none" stroke="black" d="M2740.25,-243.58C2749.53,-249.8 2760.59,-257.22 2771,-264.2"/>
<polygon fill="black" stroke="black" points="2768.78,-266.93 2779.04,-269.59 2772.68,-261.11 2768.78,-266.93"/>
</g>
<!-- 1867779476080&#45;&gt;1867779560848 -->
<g id="edge41" class="edge">
<title>1867779476080&#45;&gt;1867779560848</title>
<path fill="none" stroke="black" d="M2741.62,-216.39C2750.39,-211.61 2760.6,-206.04 2770.29,-200.75"/>
<polygon fill="black" stroke="black" points="2771.68,-203.98 2778.78,-196.12 2768.33,-197.83 2771.68,-203.98"/>
</g>
<!-- 1867779479248&#45;&gt;1867778956688 -->
<g id="edge49" class="edge">
<title>1867779479248&#45;&gt;1867778956688</title>
<path fill="none" stroke="black" d="M2264.39,-234.76C2271.57,-234.43 2279.81,-234.04 2288.54,-233.62"/>
<polygon fill="black" stroke="black" points="2288.48,-237.13 2298.31,-233.16 2288.15,-230.14 2288.48,-237.13"/>
</g>
</g>
</svg>
