<?xml version="1.0" encoding="UTF-8" standalone="no"?>
<!DOCTYPE svg PUBLIC "-//W3C//DTD SVG 1.1//EN"
 "http://www.w3.org/Graphics/SVG/1.1/DTD/svg11.dtd">
<!-- Generated by graphviz version 14.1.2 (20260124.0452)
 -->
<!-- Pages: 1 -->
<svg width="2198pt" height="820pt"
 viewBox="0.00 0.00 2198.00 820.00" xmlns="http://www.w3.org/2000/svg" xmlns:xlink="http://www.w3.org/1999/xlink">
<g id="graph0" class="graph" transform="scale(1 1) rotate(0) translate(4 816.25)">
<polygon fill="white" stroke="none" points="-4,4 -4,-816.25 2194,-816.25 2194,4 -4,4"/>
<!-- 6976936087206551120 -->
<g id="node1" class="node">
<title>6976936087206551120</title>
<polygon fill="#b7b7ff" stroke="black" points="911.12,-812.25 616.88,-812.25 616.88,-776.25 911.12,-776.25 911.12,-812.25"/>
<text xml:space="preserve" text-anchor="middle" x="764" y="-789.98" font-family="Times New Roman,serif" font-size="12.00">Declaration APPROVED by ADMINISTRATION (8202)</text>
</g>
<!-- &#45;1579377032874066839 -->
<g id="node2" class="node">
<title>&#45;1579377032874066839</title>
<polygon fill="#e6e6ff" stroke="black" points="647.12,-726 358.88,-726 358.88,-690 647.12,-690 647.12,-726"/>
<text xml:space="preserve" text-anchor="middle" x="503" y="-703.73" font-family="Times New Roman,serif" font-size="12.00">Declaration APPROVED by BUDGET OWNER (2820)</text>
</g>
<!-- 6976936087206551120&#45;&gt;&#45;1579377032874066839 -->
<g id="edge1" class="edge">
<title>6976936087206551120&#45;&gt;&#45;1579377032874066839</title>
<path fill="none" stroke="black" stroke-width="1.45" d="M709.92,-775.79C668.8,-762.52 612.05,-744.2 568.38,-730.11"/>
<polygon fill="black" stroke="black" stroke-width="1.45" points="569.69,-726.85 559.1,-727.11 567.54,-733.51 569.69,-726.85"/>
<text xml:space="preserve" text-anchor="middle" x="661.13" y="-746.85" font-family="Times New Roman,serif" font-size="12.00">2820</text>
</g>
<!-- &#45;4323116016321864061 -->
<g id="node4" class="node">
<title>&#45;4323116016321864061</title>
<polygon fill="#a7a7ff" stroke="black" points="473.5,-639.75 160.5,-639.75 160.5,-603.75 473.5,-603.75 473.5,-639.75"/>
<text xml:space="preserve" text-anchor="middle" x="317" y="-617.48" font-family="Times New Roman,serif" font-size="12.00">Declaration FINAL_APPROVED by SUPERVISOR (10131)</text>
</g>
<!-- 6976936087206551120&#45;&gt;&#45;4323116016321864061 -->
<g id="edge2" class="edge">
<title>6976936087206551120&#45;&gt;&#45;4323116016321864061</title>
<path fill="none" stroke="black" stroke-width="1.82" d="M616.41,-789.61C504.99,-783.51 364.89,-767.52 326,-726 307.9,-706.68 307.63,-675.46 310.68,-652.41"/>
<polygon fill="black" stroke="black" stroke-width="1.82" points="314.12,-653.08 312.3,-642.64 307.21,-651.93 314.12,-653.08"/>
<text xml:space="preserve" text-anchor="middle" x="338" y="-703.73" font-family="Times New Roman,serif" font-size="12.00">5133</text>
</g>
<!-- &#45;8465074734737629553 -->
<g id="node9" class="node">
<title>&#45;8465074734737629553</title>
<polygon fill="#fefeff" stroke="black" points="1316.88,-553.5 1045.12,-553.5 1045.12,-517.5 1316.88,-517.5 1316.88,-553.5"/>
<text xml:space="preserve" text-anchor="middle" x="1181" y="-531.23" font-family="Times New Roman,serif" font-size="12.00">Declaration REJECTED by BUDGET OWNER (59)</text>
</g>
<!-- 6976936087206551120&#45;&gt;&#45;8465074734737629553 -->
<g id="edge3" class="edge">
<title>6976936087206551120&#45;&gt;&#45;8465074734737629553</title>
<path fill="none" stroke="black" stroke-width="1.01" d="M911.54,-781.29C933.27,-775.98 954.78,-768.56 974,-758.25 1062.2,-710.93 1133.53,-611.65 1164.43,-563.64"/>
<polygon fill="black" stroke="black" stroke-width="1.01" points="1167.36,-565.56 1169.75,-555.23 1161.44,-561.81 1167.36,-565.56"/>
<text xml:space="preserve" text-anchor="middle" x="1098.21" y="-660.6" font-family="Times New Roman,serif" font-size="12.00">59</text>
</g>
<!-- &#45;766099625420054910 -->
<g id="node13" class="node">
<title>&#45;766099625420054910</title>
<polygon fill="#fcfcff" stroke="black" points="890.88,-294.75 637.12,-294.75 637.12,-258.75 890.88,-258.75 890.88,-294.75"/>
<text xml:space="preserve" text-anchor="middle" x="764" y="-272.48" font-family="Times New Roman,serif" font-size="12.00">Declaration REJECTED by SUPERVISOR (293)</text>
</g>
<!-- 6976936087206551120&#45;&gt;&#45;766099625420054910 -->
<g id="edge4" class="edge">
<title>6976936087206551120&#45;&gt;&#45;766099625420054910</title>
<path fill="none" stroke="black" stroke-width="1.03" d="M764,-775.82C764,-758.79 764,-732.11 764,-709 764,-709 764,-709 764,-362 764,-343.58 764,-322.9 764,-306.64"/>
<polygon fill="black" stroke="black" stroke-width="1.03" points="767.5,-306.74 764,-296.74 760.5,-306.74 767.5,-306.74"/>
<text xml:space="preserve" text-anchor="middle" x="773" y="-531.23" font-family="Times New Roman,serif" font-size="12.00">190</text>
</g>
<!-- &#45;1579377032874066839&#45;&gt;&#45;4323116016321864061 -->
<g id="edge5" class="edge">
<title>&#45;1579377032874066839&#45;&gt;&#45;4323116016321864061</title>
<path fill="none" stroke="black" stroke-width="1.44" d="M464.46,-689.54C436.03,-676.67 397.11,-659.04 366.4,-645.13"/>
<polygon fill="black" stroke="black" stroke-width="1.44" points="368.03,-642.02 357.48,-641.09 365.15,-648.4 368.03,-642.02"/>
<text xml:space="preserve" text-anchor="middle" x="433.14" y="-660.6" font-family="Times New Roman,serif" font-size="12.00">2788</text>
</g>
<!-- &#45;1579377032874066839&#45;&gt;&#45;766099625420054910 -->
<g id="edge6" class="edge">
<title>&#45;1579377032874066839&#45;&gt;&#45;766099625420054910</title>
<path fill="none" stroke="black" d="M500.19,-689.71C496.72,-669.12 490.36,-633.72 483,-603.75 469.04,-546.87 395.94,-390.35 433,-345 457.72,-314.75 546.36,-297.77 625.7,-288.45"/>
<polygon fill="black" stroke="black" points="625.77,-291.96 635.31,-287.35 624.98,-285 625.77,-291.96"/>
<text xml:space="preserve" text-anchor="middle" x="453.72" y="-488.1" font-family="Times New Roman,serif" font-size="12.00">32</text>
</g>
<!-- &#45;6062701120857442117 -->
<g id="node3" class="node">
<title>&#45;6062701120857442117</title>
<polygon fill="#f9f9ff" stroke="black" points="385.88,-381 108.12,-381 108.12,-345 385.88,-345 385.88,-381"/>
<text xml:space="preserve" text-anchor="middle" x="247" y="-358.73" font-family="Times New Roman,serif" font-size="12.00">Declaration APPROVED by PRE_APPROVER (685)</text>
</g>
<!-- &#45;6062701120857442117&#45;&gt;&#45;4323116016321864061 -->
<g id="edge7" class="edge">
<title>&#45;6062701120857442117&#45;&gt;&#45;4323116016321864061</title>
<path fill="none" stroke="black" stroke-width="1.11" d="M251.68,-381.17C263.51,-424.57 294.72,-539.02 309.29,-592.48"/>
<polygon fill="black" stroke="black" stroke-width="1.11" points="305.85,-593.16 311.86,-601.89 312.6,-591.32 305.85,-593.16"/>
<text xml:space="preserve" text-anchor="middle" x="292.61" y="-488.1" font-family="Times New Roman,serif" font-size="12.00">674</text>
</g>
<!-- &#45;6062701120857442117&#45;&gt;&#45;766099625420054910 -->
<g id="edge8" class="edge">
<title>&#45;6062701120857442117&#45;&gt;&#45;766099625420054910</title>
<path fill="none" stroke="black" d="M288.72,-344.51C316.56,-333.6 354.25,-320.24 388.75,-312.75 466.14,-295.96 554.22,-287.22 625.59,-282.67"/>
<polygon fill="black" stroke="black" points="625.62,-286.18 635.39,-282.07 625.19,-279.19 625.62,-286.18"/>
<text xml:space="preserve" text-anchor="middle" x="394.38" y="-315.6" font-family="Times New Roman,serif" font-size="12.00">11</text>
</g>
<!-- &#45;7155182592759498368 -->
<g id="node11" class="node">
<title>&#45;7155182592759498368</title>
<polygon fill="#fefeff" stroke="black" points="700.88,-553.5 477.12,-553.5 477.12,-517.5 700.88,-517.5 700.88,-553.5"/>
<text xml:space="preserve" text-anchor="middle" x="589" y="-531.23" font-family="Times New Roman,serif" font-size="12.00">Declaration REJECTED by MISSING (91)</text>
</g>
<!-- &#45;4323116016321864061&#45;&gt;&#45;7155182592759498368 -->
<g id="edge9" class="edge">
<title>&#45;4323116016321864061&#45;&gt;&#45;7155182592759498368</title>
<path fill="none" stroke="black" stroke-width="1.01" d="M361.31,-603.32C387.48,-593.34 421.37,-580.97 452,-571.5 468.8,-566.3 486.92,-561.28 504.32,-556.73"/>
<polygon fill="black" stroke="black" stroke-width="1.01" points="504.74,-560.23 513.55,-554.34 502.99,-553.45 504.74,-560.23"/>
<text xml:space="preserve" text-anchor="middle" x="458" y="-574.35" font-family="Times New Roman,serif" font-size="12.00">86</text>
</g>
<!-- 4850159714100904719 -->
<g id="node16" class="node">
<title>4850159714100904719</title>
<polygon fill="#a7a7ff" stroke="black" points="231.62,-122.25 90.38,-122.25 90.38,-86.25 231.62,-86.25 231.62,-122.25"/>
<text xml:space="preserve" text-anchor="middle" x="161" y="-99.97" font-family="Times New Roman,serif" font-size="12.00">Payment Handled (10044)</text>
</g>
<!-- &#45;4323116016321864061&#45;&gt;4850159714100904719 -->
<g id="edge10" class="edge">
<title>&#45;4323116016321864061&#45;&gt;4850159714100904719</title>
<path fill="none" stroke="black" d="M160.36,-606.24C80.49,-594.34 0,-573.23 0,-536.5 0,-536.5 0,-536.5 0,-189.5 0,-149.62 39.26,-128.58 79,-117.5"/>
<polygon fill="black" stroke="black" points="79.63,-120.95 88.45,-115.08 77.89,-114.17 79.63,-120.95"/>
<text xml:space="preserve" text-anchor="middle" x="3" y="-358.73" font-family="Times New Roman,serif" font-size="12.00">7</text>
</g>
<!-- &#45;2480901340329837493 -->
<g id="node17" class="node">
<title>&#45;2480901340329837493</title>
<polygon fill="#a7a7ff" stroke="black" points="230.5,-208.5 91.5,-208.5 91.5,-172.5 230.5,-172.5 230.5,-208.5"/>
<text xml:space="preserve" text-anchor="middle" x="161" y="-186.22" font-family="Times New Roman,serif" font-size="12.00">Request Payment (10040)</text>
</g>
<!-- &#45;4323116016321864061&#45;&gt;&#45;2480901340329837493 -->
<g id="edge11" class="edge">
<title>&#45;4323116016321864061&#45;&gt;&#45;2480901340329837493</title>
<path fill="none" stroke="black" stroke-width="2.6" d="M179.54,-603.29C109.12,-590.36 38,-569.2 38,-536.5 38,-536.5 38,-536.5 38,-275.75 38,-247.26 60.74,-227.7 86.66,-214.65"/>
<polygon fill="black" stroke="black" stroke-width="2.6" points="87.93,-217.91 95.56,-210.57 85.01,-211.55 87.93,-217.91"/>
<text xml:space="preserve" text-anchor="middle" x="53" y="-401.85" font-family="Times New Roman,serif" font-size="12.00">10038</text>
</g>
<!-- 3233552754436891665 -->
<g id="node5" class="node">
<title>3233552754436891665</title>
<polygon fill="#ffffff" stroke="black" points="1478,-381 1174,-381 1174,-345 1478,-345 1478,-381"/>
<text xml:space="preserve" text-anchor="middle" x="1326" y="-358.73" font-family="Times New Roman,serif" font-size="12.00">Declaration FOR_APPROVAL by ADMINISTRATION (1)</text>
</g>
<!-- 1832766735436300587 -->
<g id="node15" class="node">
<title>1832766735436300587</title>
<polygon fill="#9b9bff" stroke="black" points="1314.25,-467.25 1047.75,-467.25 1047.75,-431.25 1314.25,-431.25 1314.25,-467.25"/>
<text xml:space="preserve" text-anchor="middle" x="1181" y="-444.98" font-family="Times New Roman,serif" font-size="12.00">Declaration SUBMITTED by EMPLOYEE (11531)</text>
</g>
<!-- 3233552754436891665&#45;&gt;1832766735436300587 -->
<g id="edge12" class="edge">
<title>3233552754436891665&#45;&gt;1832766735436300587</title>
<path fill="none" stroke="black" d="M1295.99,-381.43C1274.23,-394.08 1244.57,-411.32 1220.82,-425.11"/>
<polygon fill="black" stroke="black" points="1219.24,-421.98 1212.35,-430.03 1222.76,-428.04 1219.24,-421.98"/>
<text xml:space="preserve" text-anchor="middle" x="1265.18" y="-401.85" font-family="Times New Roman,serif" font-size="12.00">1</text>
</g>
<!-- 1059155936173530963 -->
<g id="node6" class="node">
<title>1059155936173530963</title>
<polygon fill="#ffffff" stroke="black" points="735.75,-381 442.25,-381 442.25,-345 735.75,-345 735.75,-381"/>
<text xml:space="preserve" text-anchor="middle" x="589" y="-358.73" font-family="Times New Roman,serif" font-size="12.00">Declaration FOR_APPROVAL by PRE_APPROVER (1)</text>
</g>
<!-- 1059155936173530963&#45;&gt;&#45;7155182592759498368 -->
<g id="edge13" class="edge">
<title>1059155936173530963&#45;&gt;&#45;7155182592759498368</title>
<path fill="none" stroke="black" d="M589,-381.33C589,-410.6 589,-470.09 589,-505.7"/>
<polygon fill="black" stroke="black" points="585.5,-505.7 589,-515.7 592.5,-505.7 585.5,-505.7"/>
<text xml:space="preserve" text-anchor="middle" x="592" y="-444.98" font-family="Times New Roman,serif" font-size="12.00">1</text>
</g>
<!-- 3840274543803915287 -->
<g id="node7" class="node">
<title>3840274543803915287</title>
<polygon fill="#ffffff" stroke="black" points="1066,-381 792,-381 792,-345 1066,-345 1066,-381"/>
<text xml:space="preserve" text-anchor="middle" x="929" y="-358.73" font-family="Times New Roman,serif" font-size="12.00">Declaration FOR_APPROVAL by SUPERVISOR (1)</text>
</g>
<!-- 3840274543803915287&#45;&gt;&#45;7155182592759498368 -->
<g id="edge14" class="edge">
<title>3840274543803915287&#45;&gt;&#45;7155182592759498368</title>
<path fill="none" stroke="black" d="M885.61,-381.47C872.76,-386.86 858.72,-392.98 846,-399 768.16,-435.85 679.83,-483.82 629.63,-511.68"/>
<polygon fill="black" stroke="black" points="628.17,-508.49 621.14,-516.41 631.58,-514.61 628.17,-508.49"/>
<text xml:space="preserve" text-anchor="middle" x="781.45" y="-444.98" font-family="Times New Roman,serif" font-size="12.00">1</text>
</g>
<!-- 769605835773798814 -->
<g id="node8" class="node">
<title>769605835773798814</title>
<polygon fill="#f6f6ff" stroke="black" points="2103.88,-381 1820.12,-381 1820.12,-345 2103.88,-345 2103.88,-381"/>
<text xml:space="preserve" text-anchor="middle" x="1962" y="-358.73" font-family="Times New Roman,serif" font-size="12.00">Declaration REJECTED by ADMINISTRATION (952)</text>
</g>
<!-- 916221093654665324 -->
<g id="node10" class="node">
<title>916221093654665324</title>
<polygon fill="#f3f3ff" stroke="black" points="1793.75,-36 1542.25,-36 1542.25,0 1793.75,0 1793.75,-36"/>
<text xml:space="preserve" text-anchor="middle" x="1668" y="-13.72" font-family="Times New Roman,serif" font-size="12.00">Declaration REJECTED by EMPLOYEE (1365)</text>
</g>
<!-- 769605835773798814&#45;&gt;916221093654665324 -->
<g id="edge15" class="edge">
<title>769605835773798814&#45;&gt;916221093654665324</title>
<path fill="none" stroke="black" stroke-width="1.15" d="M1900.14,-344.57C1869.51,-331.78 1839,-310.75 1839,-277.75 1839,-277.75 1839,-277.75 1839,-103.25 1839,-72.6 1816.61,-53.09 1788.04,-40.69"/>
<polygon fill="black" stroke="black" stroke-width="1.15" points="1789.47,-37.49 1778.88,-37.07 1786.9,-44 1789.47,-37.49"/>
<text xml:space="preserve" text-anchor="middle" x="1848" y="-186.22" font-family="Times New Roman,serif" font-size="12.00">928</text>
</g>
<!-- 769605835773798814&#45;&gt;1832766735436300587 -->
<g id="edge16" class="edge">
<title>769605835773798814&#45;&gt;1832766735436300587</title>
<path fill="none" stroke="black" d="M1856.51,-381.5C1791.14,-391.87 1705.37,-404.63 1629,-413.25 1528,-424.65 1413.76,-433.51 1325.92,-439.47"/>
<polygon fill="black" stroke="black" points="1325.79,-435.97 1316.04,-440.13 1326.26,-442.95 1325.79,-435.97"/>
<text xml:space="preserve" text-anchor="middle" x="1745.16" y="-401.85" font-family="Times New Roman,serif" font-size="12.00">19</text>
</g>
<!-- &#45;8465074734737629553&#45;&gt;916221093654665324 -->
<g id="edge17" class="edge">
<title>&#45;8465074734737629553&#45;&gt;916221093654665324</title>
<path fill="none" stroke="black" stroke-width="1.01" d="M1317.28,-529.89C1590.22,-519.74 2178,-492.93 2178,-450.25 2178,-450.25 2178,-450.25 2178,-103.25 2178,-79.64 2147.78,-75.31 2039,-54 1962.31,-38.98 1875.4,-30.34 1804.98,-25.41"/>
<polygon fill="black" stroke="black" stroke-width="1.01" points="1805.56,-21.94 1795.35,-24.75 1805.09,-28.92 1805.56,-21.94"/>
<text xml:space="preserve" text-anchor="middle" x="2184" y="-272.48" font-family="Times New Roman,serif" font-size="12.00">58</text>
</g>
<!-- &#45;8465074734737629553&#45;&gt;1832766735436300587 -->
<g id="edge18" class="edge">
<title>&#45;8465074734737629553&#45;&gt;1832766735436300587</title>
<path fill="none" stroke="black" d="M1181,-517.04C1181,-506.09 1181,-491.69 1181,-479.07"/>
<polygon fill="black" stroke="black" points="1184.5,-479.2 1181,-469.2 1177.5,-479.2 1184.5,-479.2"/>
<text xml:space="preserve" text-anchor="middle" x="1184" y="-488.1" font-family="Times New Roman,serif" font-size="12.00">1</text>
</g>
<!-- 916221093654665324&#45;&gt;1832766735436300587 -->
<g id="edge19" class="edge">
<title>916221093654665324&#45;&gt;1832766735436300587</title>
<path fill="none" stroke="black" stroke-width="1.17" d="M1568.63,-36.42C1535.1,-48.48 1506,-68.85 1506,-103.25 1506,-364 1506,-364 1506,-364 1506,-403.96 1412.79,-425.28 1326.21,-436.47"/>
<polygon fill="black" stroke="black" stroke-width="1.17" points="1325.85,-432.98 1316.36,-437.69 1326.71,-439.93 1325.85,-432.98"/>
<text xml:space="preserve" text-anchor="middle" x="1518" y="-229.35" font-family="Times New Roman,serif" font-size="12.00">1081</text>
</g>
<!-- &#45;7155182592759498368&#45;&gt;1832766735436300587 -->
<g id="edge20" class="edge">
<title>&#45;7155182592759498368&#45;&gt;1832766735436300587</title>
<path fill="none" stroke="black" stroke-width="1.01" d="M652.56,-517.07C693.74,-506.39 748.7,-493.27 798,-485.25 876.2,-472.53 964.18,-464.08 1036.09,-458.68"/>
<polygon fill="black" stroke="black" stroke-width="1.01" points="1036.24,-462.18 1045.96,-457.95 1035.73,-455.19 1036.24,-462.18"/>
<text xml:space="preserve" text-anchor="middle" x="804" y="-488.1" font-family="Times New Roman,serif" font-size="12.00">61</text>
</g>
<!-- &#45;6864904805709398014 -->
<g id="node12" class="node">
<title>&#45;6864904805709398014</title>
<polygon fill="#fefeff" stroke="black" points="1801.62,-381 1534.38,-381 1534.38,-345 1801.62,-345 1801.62,-381"/>
<text xml:space="preserve" text-anchor="middle" x="1668" y="-358.73" font-family="Times New Roman,serif" font-size="12.00">Declaration REJECTED by PRE_APPROVER (86)</text>
</g>
<!-- &#45;6864904805709398014&#45;&gt;916221093654665324 -->
<g id="edge21" class="edge">
<title>&#45;6864904805709398014&#45;&gt;916221093654665324</title>
<path fill="none" stroke="black" stroke-width="1.01" d="M1668,-344.57C1668,-327.54 1668,-300.86 1668,-277.75 1668,-277.75 1668,-277.75 1668,-103.25 1668,-84.83 1668,-64.15 1668,-47.89"/>
<polygon fill="black" stroke="black" stroke-width="1.01" points="1671.5,-47.96 1668,-37.96 1664.5,-47.96 1671.5,-47.96"/>
<text xml:space="preserve" text-anchor="middle" x="1674" y="-186.22" font-family="Times New Roman,serif" font-size="12.00">85</text>
</g>
<!-- &#45;6864904805709398014&#45;&gt;1832766735436300587 -->
<g id="edge22" class="edge">
<title>&#45;6864904805709398014&#45;&gt;1832766735436300587</title>
<path fill="none" stroke="black" d="M1624.02,-381.45C1594.94,-392.28 1555.74,-405.56 1520,-413.25 1456.97,-426.82 1386.18,-435.18 1325.65,-440.3"/>
<polygon fill="black" stroke="black" points="1325.66,-436.79 1315.98,-441.1 1326.24,-443.77 1325.66,-436.79"/>
<text xml:space="preserve" text-anchor="middle" x="1572.67" y="-401.85" font-family="Times New Roman,serif" font-size="12.00">1</text>
</g>
<!-- &#45;766099625420054910&#45;&gt;916221093654665324 -->
<g id="edge23" class="edge">
<title>&#45;766099625420054910&#45;&gt;916221093654665324</title>
<path fill="none" stroke="black" stroke-width="1.05" d="M814.7,-258.4C932.53,-218.49 1234.43,-118.67 1492,-54 1513.84,-48.52 1537.38,-43.34 1559.92,-38.73"/>
<polygon fill="black" stroke="black" stroke-width="1.05" points="1560.58,-42.17 1569.69,-36.76 1559.2,-35.31 1560.58,-42.17"/>
<text xml:space="preserve" text-anchor="middle" x="1191.51" y="-143.1" font-family="Times New Roman,serif" font-size="12.00">286</text>
</g>
<!-- &#45;766099625420054910&#45;&gt;1832766735436300587 -->
<g id="edge24" class="edge">
<title>&#45;766099625420054910&#45;&gt;1832766735436300587</title>
<path fill="none" stroke="black" d="M891.36,-277.54C977,-279.78 1080.48,-287.86 1116,-312.75 1134.7,-325.86 1158.22,-384.4 1171.22,-420.11"/>
<polygon fill="black" stroke="black" points="1167.88,-421.15 1174.55,-429.39 1174.47,-418.79 1167.88,-421.15"/>
<text xml:space="preserve" text-anchor="middle" x="1158.26" y="-358.73" font-family="Times New Roman,serif" font-size="12.00">2</text>
</g>
<!-- &#45;766099625420054910&#45;&gt;&#45;2480901340329837493 -->
<g id="edge25" class="edge">
<title>&#45;766099625420054910&#45;&gt;&#45;2480901340329837493</title>
<path fill="none" stroke="black" d="M639.06,-258.29C519.86,-241.64 343.8,-217.04 241.93,-202.81"/>
<polygon fill="black" stroke="black" points="242.68,-199.38 232.29,-201.46 241.71,-206.31 242.68,-199.38"/>
<text xml:space="preserve" text-anchor="middle" x="501.6" y="-229.35" font-family="Times New Roman,serif" font-size="12.00">1</text>
</g>
<!-- 1216532089754260728 -->
<g id="node14" class="node">
<title>1216532089754260728</title>
<polygon fill="#fdfdff" stroke="black" points="336.25,-294.75 111.75,-294.75 111.75,-258.75 336.25,-258.75 336.25,-294.75"/>
<text xml:space="preserve" text-anchor="middle" x="224" y="-272.48" font-family="Times New Roman,serif" font-size="12.00">Declaration SAVED by EMPLOYEE (135)</text>
</g>
<!-- 1216532089754260728&#45;&gt;&#45;2480901340329837493 -->
<g id="edge26" class="edge">
<title>1216532089754260728&#45;&gt;&#45;2480901340329837493</title>
<path fill="none" stroke="black" d="M210.95,-258.29C202.25,-246.66 190.65,-231.15 180.82,-218"/>
<polygon fill="black" stroke="black" points="183.73,-216.06 174.94,-210.15 178.13,-220.25 183.73,-216.06"/>
<text xml:space="preserve" text-anchor="middle" x="199.27" y="-229.35" font-family="Times New Roman,serif" font-size="12.00">1</text>
</g>
<!-- 1832766735436300587&#45;&gt;6976936087206551120 -->
<g id="edge27" class="edge">
<title>1832766735436300587&#45;&gt;6976936087206551120</title>
<path fill="none" stroke="black" stroke-width="2.31" d="M1090.47,-467.69C1029.44,-482.13 960,-505.04 960,-534.5 960,-709 960,-709 960,-709 960,-738.68 940.79,-758.04 914.4,-770.62"/>
<polygon fill="black" stroke="black" stroke-width="2.31" points="913.31,-767.28 905.47,-774.41 916.04,-773.73 913.31,-767.28"/>
<text xml:space="preserve" text-anchor="middle" x="972" y="-617.48" font-family="Times New Roman,serif" font-size="12.00">8202</text>
</g>
<!-- 1832766735436300587&#45;&gt;&#45;6062701120857442117 -->
<g id="edge28" class="edge">
<title>1832766735436300587&#45;&gt;&#45;6062701120857442117</title>
<path fill="none" stroke="black" stroke-width="1.11" d="M1047.56,-436.31C897.94,-422.91 648.07,-400.5 433,-381 421.5,-379.96 409.6,-378.88 397.63,-377.79"/>
<polygon fill="black" stroke="black" stroke-width="1.11" points="398.09,-374.31 387.82,-376.89 397.46,-381.29 398.09,-374.31"/>
<text xml:space="preserve" text-anchor="middle" x="790.31" y="-401.85" font-family="Times New Roman,serif" font-size="12.00">685</text>
</g>
<!-- 1832766735436300587&#45;&gt;&#45;4323116016321864061 -->
<g id="edge29" class="edge">
<title>1832766735436300587&#45;&gt;&#45;4323116016321864061</title>
<path fill="none" stroke="black" stroke-width="1.24" d="M1047.38,-464.12C1013.92,-469.23 978.35,-476.1 946,-485.25 871.61,-506.28 860.45,-532.67 786,-553.5 688.29,-580.84 575.87,-597.44 485.58,-607.31"/>
<polygon fill="black" stroke="black" stroke-width="1.24" points="485.28,-603.82 475.71,-608.37 486.03,-610.78 485.28,-603.82"/>
<text xml:space="preserve" text-anchor="middle" x="880.88" y="-531.23" font-family="Times New Roman,serif" font-size="12.00">1536</text>
</g>
<!-- 1832766735436300587&#45;&gt;3233552754436891665 -->
<g id="edge30" class="edge">
<title>1832766735436300587&#45;&gt;3233552754436891665</title>
<path fill="none" stroke="black" d="M1196.7,-430.97C1206.84,-420.62 1220.75,-407.8 1235,-399 1242.97,-394.08 1251.75,-389.65 1260.61,-385.73"/>
<polygon fill="black" stroke="black" points="1261.75,-389.04 1269.61,-381.95 1259.04,-382.59 1261.75,-389.04"/>
<text xml:space="preserve" text-anchor="middle" x="1238" y="-401.85" font-family="Times New Roman,serif" font-size="12.00">1</text>
</g>
<!-- 1832766735436300587&#45;&gt;1059155936173530963 -->
<g id="edge31" class="edge">
<title>1832766735436300587&#45;&gt;1059155936173530963</title>
<path fill="none" stroke="black" d="M1058.34,-430.79C960.49,-416.87 823.62,-397.39 722.93,-383.06"/>
<polygon fill="black" stroke="black" points="723.65,-379.63 713.26,-381.68 722.67,-386.56 723.65,-379.63"/>
<text xml:space="preserve" text-anchor="middle" x="923.44" y="-401.85" font-family="Times New Roman,serif" font-size="12.00">1</text>
</g>
<!-- 1832766735436300587&#45;&gt;3840274543803915287 -->
<g id="edge32" class="edge">
<title>1832766735436300587&#45;&gt;3840274543803915287</title>
<path fill="none" stroke="black" d="M1128.79,-430.79C1089,-417.49 1034.06,-399.12 991.86,-385.02"/>
<polygon fill="black" stroke="black" points="993.18,-381.77 982.58,-381.91 990.96,-388.4 993.18,-381.77"/>
<text xml:space="preserve" text-anchor="middle" x="1073.09" y="-401.85" font-family="Times New Roman,serif" font-size="12.00">1</text>
</g>
<!-- 1832766735436300587&#45;&gt;769605835773798814 -->
<g id="edge33" class="edge">
<title>1832766735436300587&#45;&gt;769605835773798814</title>
<path fill="none" stroke="black" stroke-width="1.15" d="M1314.48,-446.62C1431.25,-443.65 1605.14,-435.48 1755,-413.25 1800.33,-406.53 1850.33,-394.76 1889.84,-384.41"/>
<polygon fill="black" stroke="black" stroke-width="1.15" points="1890.49,-387.85 1899.26,-381.91 1888.7,-381.09 1890.49,-387.85"/>
<text xml:space="preserve" text-anchor="middle" x="1838.66" y="-401.85" font-family="Times New Roman,serif" font-size="12.00">952</text>
</g>
<!-- 1832766735436300587&#45;&gt;916221093654665324 -->
<g id="edge34" class="edge">
<title>1832766735436300587&#45;&gt;916221093654665324</title>
<path fill="none" stroke="black" d="M1314.55,-444.07C1450.11,-439.17 1665.93,-429.58 1852,-413.25 1977.87,-402.2 2132,-490.35 2132,-364 2132,-364 2132,-364 2132,-103.25 2132,-69.75 1942.39,-44.65 1805.58,-30.9"/>
<polygon fill="black" stroke="black" points="1805.98,-27.43 1795.68,-29.92 1805.29,-34.39 1805.98,-27.43"/>
<text xml:space="preserve" text-anchor="middle" x="2135" y="-229.35" font-family="Times New Roman,serif" font-size="12.00">7</text>
</g>
<!-- 1832766735436300587&#45;&gt;&#45;6864904805709398014 -->
<g id="edge35" class="edge">
<title>1832766735436300587&#45;&gt;&#45;6864904805709398014</title>
<path fill="none" stroke="black" stroke-width="1.01" d="M1314.31,-442.56C1410.63,-437.32 1531.9,-428.07 1580,-413.25 1598.98,-407.4 1618.42,-397.06 1634.19,-387.36"/>
<polygon fill="black" stroke="black" stroke-width="1.01" points="1635.63,-390.59 1642.2,-382.28 1631.88,-384.68 1635.63,-390.59"/>
<text xml:space="preserve" text-anchor="middle" x="1619.05" y="-401.85" font-family="Times New Roman,serif" font-size="12.00">86</text>
</g>
<!-- 1832766735436300587&#45;&gt;&#45;766099625420054910 -->
<g id="edge36" class="edge">
<title>1832766735436300587&#45;&gt;&#45;766099625420054910</title>
<path fill="none" stroke="black" stroke-width="1.01" d="M1168.39,-430.96C1150.4,-407.63 1115.07,-366.5 1075,-345 1022.18,-316.65 958.26,-300.25 902.14,-290.77"/>
<polygon fill="black" stroke="black" stroke-width="1.01" points="902.97,-287.35 892.53,-289.2 901.84,-294.26 902.97,-287.35"/>
<text xml:space="preserve" text-anchor="middle" x="1127.82" y="-358.73" font-family="Times New Roman,serif" font-size="12.00">60</text>
</g>
<!-- 4850159714100904719&#45;&gt;916221093654665324 -->
<g id="edge37" class="edge">
<title>4850159714100904719&#45;&gt;916221093654665324</title>
<path fill="none" stroke="black" d="M231.92,-99.29C466.24,-86.19 1218.45,-44.13 1530.42,-26.69"/>
<polygon fill="black" stroke="black" points="1530.48,-30.19 1540.27,-26.14 1530.09,-23.2 1530.48,-30.19"/>
<text xml:space="preserve" text-anchor="middle" x="1007.73" y="-56.85" font-family="Times New Roman,serif" font-size="12.00">1</text>
</g>
<!-- &#45;2480901340329837493&#45;&gt;&#45;7155182592759498368 -->
<g id="edge38" class="edge">
<title>&#45;2480901340329837493&#45;&gt;&#45;7155182592759498368</title>
<path fill="none" stroke="black" d="M130.57,-208.77C109.04,-223.49 84,-246.82 84,-275.75 84,-407.12 84,-407.12 84,-407.12 84,-485.63 316.37,-516.24 465.86,-527.81"/>
<polygon fill="black" stroke="black" points="465.18,-531.27 475.41,-528.53 465.71,-524.29 465.18,-531.27"/>
<text xml:space="preserve" text-anchor="middle" x="87" y="-358.73" font-family="Times New Roman,serif" font-size="12.00">3</text>
</g>
<!-- &#45;2480901340329837493&#45;&gt;4850159714100904719 -->
<g id="edge39" class="edge">
<title>&#45;2480901340329837493&#45;&gt;4850159714100904719</title>
<path fill="none" stroke="black" stroke-width="2.6" d="M161,-172.04C161,-161.76 161,-148.46 161,-136.43"/>
<polygon fill="black" stroke="black" stroke-width="2.6" points="164.5,-136.62 161,-126.62 157.5,-136.62 164.5,-136.62"/>
<text xml:space="preserve" text-anchor="middle" x="176" y="-143.1" font-family="Times New Roman,serif" font-size="12.00">10037</text>
</g>
</g>
</svg>
