<?xml version="1.0" encoding="UTF-8" standalone="no"?>
<!DOCTYPE svg PUBLIC "-//W3C//DTD SVG 1.1//EN"
 "http://www.w3.org/Graphics/SVG/1.1/DTD/svg11.dtd">
<!-- Generated by graphviz version 14.1.2 (20260124.0452)
 -->
<!-- Pages: 1 -->
<svg width="315pt" height="475pt"
 viewBox="0.00 0.00 315.00 475.00" xmlns="http://www.w3.org/2000/svg" xmlns:xlink="http://www.w3.org/1999/xlink">
<g id="graph0" class="graph" transform="scale(1 1) rotate(0) translate(4 471.25)">
<polygon fill="white" stroke="none" points="-4,4 -4,-471.25 311,-471.25 311,4 -4,4"/>
<!-- 6976936087206551120 -->
<g id="node1" class="node">
<title>6976936087206551120</title>
<polygon fill="#ffffff" stroke="black" points="300.62,-381 6.38,-381 6.38,-345 300.62,-345 300.62,-381"/>
<text xml:space="preserve" text-anchor="middle" x="153.5" y="-358.73" font-family="Times New Roman,serif" font-size="12.00">Declaration APPROVED by ADMINISTRATION (2473)</text>
</g>
<!-- &#45;1579377032874066839 -->
<g id="node2" class="node">
<title>&#45;1579377032874066839</title>
<polygon fill="#ffffff" stroke="black" points="297.62,-294.75 9.38,-294.75 9.38,-258.75 297.62,-258.75 297.62,-294.75"/>
<text xml:space="preserve" text-anchor="middle" x="153.5" y="-272.48" font-family="Times New Roman,serif" font-size="12.00">Declaration APPROVED by BUDGET OWNER (2473)</text>
</g>
<!-- 6976936087206551120&#45;&gt;&#45;1579377032874066839 -->
<g id="edge1" class="edge">
<title>6976936087206551120&#45;&gt;&#45;1579377032874066839</title>
<path fill="none" stroke="black" d="M153.5,-344.54C153.5,-333.59 153.5,-319.19 153.5,-306.57"/>
<polygon fill="black" stroke="black" points="157,-306.7 153.5,-296.7 150,-306.7 157,-306.7"/>
<text xml:space="preserve" text-anchor="middle" x="165.5" y="-315.6" font-family="Times New Roman,serif" font-size="12.00">2473</text>
</g>
<!-- &#45;4323116016321864061 -->
<g id="node3" class="node">
<title>&#45;4323116016321864061</title>
<polygon fill="#ffffff" stroke="black" points="307,-208.5 0,-208.5 0,-172.5 307,-172.5 307,-208.5"/>
<text xml:space="preserve" text-anchor="middle" x="153.5" y="-186.22" font-family="Times New Roman,serif" font-size="12.00">Declaration FINAL_APPROVED by SUPERVISOR (2473)</text>
</g>
<!-- &#45;1579377032874066839&#45;&gt;&#45;4323116016321864061 -->
<g id="edge2" class="edge">
<title>&#45;1579377032874066839&#45;&gt;&#45;4323116016321864061</title>
<path fill="none" stroke="black" d="M153.5,-258.29C153.5,-247.34 153.5,-232.94 153.5,-220.32"/>
<polygon fill="black" stroke="black" points="157,-220.45 153.5,-210.45 150,-220.45 157,-220.45"/>
<text xml:space="preserve" text-anchor="middle" x="165.5" y="-229.35" font-family="Times New Roman,serif" font-size="12.00">2473</text>
</g>
<!-- &#45;2480901340329837493 -->
<g id="node6" class="node">
<title>&#45;2480901340329837493</title>
<polygon fill="#ffffff" stroke="black" points="220,-122.25 87,-122.25 87,-86.25 220,-86.25 220,-122.25"/>
<text xml:space="preserve" text-anchor="middle" x="153.5" y="-99.97" font-family="Times New Roman,serif" font-size="12.00">Request Payment (2473)</text>
</g>
<!-- &#45;4323116016321864061&#45;&gt;&#45;2480901340329837493 -->
<g id="edge3" class="edge">
<title>&#45;4323116016321864061&#45;&gt;&#45;2480901340329837493</title>
<path fill="none" stroke="black" d="M153.5,-172.04C153.5,-161.09 153.5,-146.69 153.5,-134.07"/>
<polygon fill="black" stroke="black" points="157,-134.2 153.5,-124.2 150,-134.2 157,-134.2"/>
<text xml:space="preserve" text-anchor="middle" x="165.5" y="-143.1" font-family="Times New Roman,serif" font-size="12.00">2473</text>
</g>
<!-- 1832766735436300587 -->
<g id="node4" class="node">
<title>1832766735436300587</title>
<polygon fill="#ffffff" stroke="black" points="284.12,-467.25 22.88,-467.25 22.88,-431.25 284.12,-431.25 284.12,-467.25"/>
<text xml:space="preserve" text-anchor="middle" x="153.5" y="-444.98" font-family="Times New Roman,serif" font-size="12.00">Declaration SUBMITTED by EMPLOYEE (2473)</text>
</g>
<!-- 1832766735436300587&#45;&gt;6976936087206551120 -->
<g id="edge4" class="edge">
<title>1832766735436300587&#45;&gt;6976936087206551120</title>
<path fill="none" stroke="black" d="M153.5,-430.79C153.5,-419.84 153.5,-405.44 153.5,-392.82"/>
<polygon fill="black" stroke="black" points="157,-392.95 153.5,-382.95 150,-392.95 157,-392.95"/>
<text xml:space="preserve" text-anchor="middle" x="165.5" y="-401.85" font-family="Times New Roman,serif" font-size="12.00">2473</text>
</g>
<!-- 4850159714100904719 -->
<g id="node5" class="node">
<title>4850159714100904719</title>
<polygon fill="#ffffff" stroke="black" points="221.12,-36 85.88,-36 85.88,0 221.12,0 221.12,-36"/>
<text xml:space="preserve" text-anchor="middle" x="153.5" y="-13.72" font-family="Times New Roman,serif" font-size="12.00">Payment Handled (2473)</text>
</g>
<!-- &#45;2480901340329837493&#45;&gt;4850159714100904719 -->
<g id="edge5" class="edge">
<title>&#45;2480901340329837493&#45;&gt;4850159714100904719</title>
<path fill="none" stroke="black" d="M153.5,-85.79C153.5,-74.84 153.5,-60.44 153.5,-47.82"/>
<polygon fill="black" stroke="black" points="157,-47.95 153.5,-37.95 150,-47.95 157,-47.95"/>
<text xml:space="preserve" text-anchor="middle" x="165.5" y="-56.85" font-family="Times New Roman,serif" font-size="12.00">2473</text>
</g>
</g>
</svg>
