<?xml version="1.0" encoding="UTF-8" standalone="no"?>
<!DOCTYPE svg PUBLIC "-//W3C//DTD SVG 1.1//EN"
 "http://www.w3.org/Graphics/SVG/1.1/DTD/svg11.dtd">
<!-- Generated by graphviz version 14.1.2 (20260124.0452)
 -->
<!-- Pages: 1 -->
<svg width="1028pt" height="389pt"
 viewBox="0.00 0.00 1028.00 389.00" xmlns="http://www.w3.org/2000/svg" xmlns:xlink="http://www.w3.org/1999/xlink">
<g id="graph0" class="graph" transform="scale(1 1) rotate(0) translate(4 385)">
<polygon fill="white" stroke="none" points="-4,4 -4,-385 1023.75,-385 1023.75,4 -4,4"/>
<!-- 6976936087206551120 -->
<g id="node1" class="node">
<title>6976936087206551120</title>
<polygon fill="#cfcfff" stroke="black" points="631.25,-381 343,-381 343,-345 631.25,-345 631.25,-381"/>
<text xml:space="preserve" text-anchor="middle" x="487.12" y="-358.73" font-family="Times New Roman,serif" font-size="12.00">Declaration APPROVED by ADMINISTRATION (616)</text>
</g>
<!-- &#45;1579377032874066839 -->
<g id="node2" class="node">
<title>&#45;1579377032874066839</title>
<polygon fill="#eeeeff" stroke="black" points="282.25,-294.75 0,-294.75 0,-258.75 282.25,-258.75 282.25,-294.75"/>
<text xml:space="preserve" text-anchor="middle" x="141.12" y="-272.48" font-family="Times New Roman,serif" font-size="12.00">Declaration APPROVED by BUDGET OWNER (220)</text>
</g>
<!-- 6976936087206551120&#45;&gt;&#45;1579377032874066839 -->
<g id="edge1" class="edge">
<title>6976936087206551120&#45;&gt;&#45;1579377032874066839</title>
<path fill="none" stroke="black" stroke-width="1.51" d="M368.76,-344.54C341.45,-339.64 312.64,-333.77 286.12,-327 256.62,-319.47 224.48,-308.82 197.98,-299.34"/>
<polygon fill="black" stroke="black" stroke-width="1.51" points="199.36,-296.12 188.76,-296.01 196.98,-302.7 199.36,-296.12"/>
<text xml:space="preserve" text-anchor="middle" x="295.12" y="-315.6" font-family="Times New Roman,serif" font-size="12.00">220</text>
</g>
<!-- &#45;4323116016321864061 -->
<g id="node3" class="node">
<title>&#45;4323116016321864061</title>
<polygon fill="#d0d0ff" stroke="black" points="416.62,-208.5 115.62,-208.5 115.62,-172.5 416.62,-172.5 416.62,-208.5"/>
<text xml:space="preserve" text-anchor="middle" x="266.12" y="-186.22" font-family="Times New Roman,serif" font-size="12.00">Declaration FINAL_APPROVED by SUPERVISOR (613)</text>
</g>
<!-- 6976936087206551120&#45;&gt;&#45;4323116016321864061 -->
<g id="edge2" class="edge">
<title>6976936087206551120&#45;&gt;&#45;4323116016321864061</title>
<path fill="none" stroke="black" stroke-width="1.91" d="M420.33,-344.55C389.39,-333.97 353.69,-317.93 327.12,-294.75 303.96,-274.54 287.23,-243.29 277.21,-220.47"/>
<polygon fill="black" stroke="black" stroke-width="1.91" points="280.53,-219.33 273.45,-211.44 274.06,-222.02 280.53,-219.33"/>
<text xml:space="preserve" text-anchor="middle" x="336.12" y="-272.48" font-family="Times New Roman,serif" font-size="12.00">393</text>
</g>
<!-- &#45;8465074734737629553 -->
<g id="node5" class="node">
<title>&#45;8465074734737629553</title>
<polygon fill="#fefeff" stroke="black" points="620,-294.75 354.25,-294.75 354.25,-258.75 620,-258.75 620,-294.75"/>
<text xml:space="preserve" text-anchor="middle" x="487.12" y="-272.48" font-family="Times New Roman,serif" font-size="12.00">Declaration REJECTED by BUDGET OWNER (2)</text>
</g>
<!-- 6976936087206551120&#45;&gt;&#45;8465074734737629553 -->
<g id="edge3" class="edge">
<title>6976936087206551120&#45;&gt;&#45;8465074734737629553</title>
<path fill="none" stroke="black" d="M487.12,-344.54C487.12,-333.59 487.12,-319.19 487.12,-306.57"/>
<polygon fill="black" stroke="black" points="490.63,-306.7 487.13,-296.7 483.63,-306.7 490.63,-306.7"/>
<text xml:space="preserve" text-anchor="middle" x="490.12" y="-315.6" font-family="Times New Roman,serif" font-size="12.00">2</text>
</g>
<!-- &#45;766099625420054910 -->
<g id="node7" class="node">
<title>&#45;766099625420054910</title>
<polygon fill="#ffffff" stroke="black" points="880,-294.75 638.25,-294.75 638.25,-258.75 880,-258.75 880,-294.75"/>
<text xml:space="preserve" text-anchor="middle" x="759.12" y="-272.48" font-family="Times New Roman,serif" font-size="12.00">Declaration REJECTED by SUPERVISOR (1)</text>
</g>
<!-- 6976936087206551120&#45;&gt;&#45;766099625420054910 -->
<g id="edge4" class="edge">
<title>6976936087206551120&#45;&gt;&#45;766099625420054910</title>
<path fill="none" stroke="black" d="M543.48,-344.54C586.61,-331.19 646.23,-312.72 691.86,-298.59"/>
<polygon fill="black" stroke="black" points="692.88,-301.93 701.39,-295.63 690.8,-295.25 692.88,-301.93"/>
<text xml:space="preserve" text-anchor="middle" x="642.41" y="-315.6" font-family="Times New Roman,serif" font-size="12.00">1</text>
</g>
<!-- &#45;1579377032874066839&#45;&gt;&#45;4323116016321864061 -->
<g id="edge5" class="edge">
<title>&#45;1579377032874066839&#45;&gt;&#45;4323116016321864061</title>
<path fill="none" stroke="black" stroke-width="1.51" d="M167.03,-258.29C185.29,-245.98 210,-229.33 230.18,-215.73"/>
<polygon fill="black" stroke="black" stroke-width="1.51" points="232.03,-218.7 238.36,-210.21 228.12,-212.9 232.03,-218.7"/>
<text xml:space="preserve" text-anchor="middle" x="220.11" y="-229.35" font-family="Times New Roman,serif" font-size="12.00">220</text>
</g>
<!-- &#45;2480901340329837493 -->
<g id="node10" class="node">
<title>&#45;2480901340329837493</title>
<polygon fill="#d0d0ff" stroke="black" points="329.62,-122.25 202.62,-122.25 202.62,-86.25 329.62,-86.25 329.62,-122.25"/>
<text xml:space="preserve" text-anchor="middle" x="266.12" y="-99.97" font-family="Times New Roman,serif" font-size="12.00">Request Payment (613)</text>
</g>
<!-- &#45;4323116016321864061&#45;&gt;&#45;2480901340329837493 -->
<g id="edge6" class="edge">
<title>&#45;4323116016321864061&#45;&gt;&#45;2480901340329837493</title>
<path fill="none" stroke="black" stroke-width="2.42" d="M266.12,-172.04C266.12,-161.65 266.12,-148.17 266.12,-136.03"/>
<polygon fill="black" stroke="black" stroke-width="2.42" points="269.63,-136.35 266.13,-126.35 262.63,-136.35 269.63,-136.35"/>
<text xml:space="preserve" text-anchor="middle" x="275.12" y="-143.1" font-family="Times New Roman,serif" font-size="12.00">613</text>
</g>
<!-- 769605835773798814 -->
<g id="node4" class="node">
<title>769605835773798814</title>
<polygon fill="#cacaff" stroke="black" points="990,-36 706.25,-36 706.25,0 990,0 990,-36"/>
<text xml:space="preserve" text-anchor="middle" x="848.12" y="-13.72" font-family="Times New Roman,serif" font-size="12.00">Declaration REJECTED by ADMINISTRATION (690)</text>
</g>
<!-- 916221093654665324 -->
<g id="node6" class="node">
<title>916221093654665324</title>
<polygon fill="#cacaff" stroke="black" points="879.88,-208.5 634.38,-208.5 634.38,-172.5 879.88,-172.5 879.88,-208.5"/>
<text xml:space="preserve" text-anchor="middle" x="757.12" y="-186.22" font-family="Times New Roman,serif" font-size="12.00">Declaration REJECTED by EMPLOYEE (689)</text>
</g>
<!-- 769605835773798814&#45;&gt;916221093654665324 -->
<g id="edge7" class="edge">
<title>769605835773798814&#45;&gt;916221093654665324</title>
<path fill="none" stroke="black" stroke-width="2.58" d="M793.33,-36.37C769.82,-46.85 744.68,-62.83 731.12,-86.25 717.88,-109.15 727.57,-138.71 738.69,-160.33"/>
<polygon fill="black" stroke="black" stroke-width="2.58" points="735.56,-161.91 743.51,-168.92 741.67,-158.49 735.56,-161.91"/>
<text xml:space="preserve" text-anchor="middle" x="740.12" y="-99.97" font-family="Times New Roman,serif" font-size="12.00">683</text>
</g>
<!-- 1832766735436300587 -->
<g id="node8" class="node">
<title>1832766735436300587</title>
<polygon fill="#9b9bff" stroke="black" points="1019.75,-122.25 758.5,-122.25 758.5,-86.25 1019.75,-86.25 1019.75,-122.25"/>
<text xml:space="preserve" text-anchor="middle" x="889.12" y="-99.97" font-family="Times New Roman,serif" font-size="12.00">Declaration SUBMITTED by EMPLOYEE (1309)</text>
</g>
<!-- 769605835773798814&#45;&gt;1832766735436300587 -->
<g id="edge8" class="edge">
<title>769605835773798814&#45;&gt;1832766735436300587</title>
<path fill="none" stroke="black" stroke-width="1.01" d="M857.86,-36.31C860.92,-41.91 864.25,-48.17 867.12,-54 870.5,-60.83 873.95,-68.3 877.09,-75.3"/>
<polygon fill="black" stroke="black" stroke-width="1.01" points="873.85,-76.63 881.09,-84.37 880.26,-73.81 873.85,-76.63"/>
<text xml:space="preserve" text-anchor="middle" x="876.49" y="-56.85" font-family="Times New Roman,serif" font-size="12.00">7</text>
</g>
<!-- &#45;8465074734737629553&#45;&gt;916221093654665324 -->
<g id="edge9" class="edge">
<title>&#45;8465074734737629553&#45;&gt;916221093654665324</title>
<path fill="none" stroke="black" d="M543.07,-258.29C585.88,-244.94 645.06,-226.47 690.35,-212.34"/>
<polygon fill="black" stroke="black" points="691.3,-215.71 699.8,-209.39 689.22,-209.02 691.3,-215.71"/>
<text xml:space="preserve" text-anchor="middle" x="641.29" y="-229.35" font-family="Times New Roman,serif" font-size="12.00">2</text>
</g>
<!-- 916221093654665324&#45;&gt;1832766735436300587 -->
<g id="edge10" class="edge">
<title>916221093654665324&#45;&gt;1832766735436300587</title>
<path fill="none" stroke="black" stroke-width="2.6" d="M781.49,-172.19C795.3,-162.54 813,-150.45 829.12,-140.25 834.69,-136.73 840.62,-133.12 846.49,-129.61"/>
<polygon fill="black" stroke="black" stroke-width="2.6" points="848.11,-132.72 854.96,-124.63 844.56,-126.68 848.11,-132.72"/>
<text xml:space="preserve" text-anchor="middle" x="838.12" y="-143.1" font-family="Times New Roman,serif" font-size="12.00">689</text>
</g>
<!-- &#45;766099625420054910&#45;&gt;916221093654665324 -->
<g id="edge11" class="edge">
<title>&#45;766099625420054910&#45;&gt;916221093654665324</title>
<path fill="none" stroke="black" d="M758.71,-258.29C758.45,-247.34 758.11,-232.94 757.81,-220.32"/>
<polygon fill="black" stroke="black" points="761.31,-220.36 757.57,-210.45 754.31,-220.53 761.31,-220.36"/>
<text xml:space="preserve" text-anchor="middle" x="761.24" y="-229.35" font-family="Times New Roman,serif" font-size="12.00">1</text>
</g>
<!-- 1832766735436300587&#45;&gt;6976936087206551120 -->
<g id="edge12" class="edge">
<title>1832766735436300587&#45;&gt;6976936087206551120</title>
<path fill="none" stroke="black" stroke-width="2.43" d="M895.7,-122.65C908.31,-159.3 931.11,-245.16 889.12,-294.75 857.65,-331.93 743.77,-348.57 645.21,-356.01"/>
<polygon fill="black" stroke="black" stroke-width="2.43" points="645.12,-352.5 635.4,-356.71 645.62,-359.49 645.12,-352.5"/>
<text xml:space="preserve" text-anchor="middle" x="922.03" y="-229.35" font-family="Times New Roman,serif" font-size="12.00">616</text>
</g>
<!-- 1832766735436300587&#45;&gt;769605835773798814 -->
<g id="edge13" class="edge">
<title>1832766735436300587&#45;&gt;769605835773798814</title>
<path fill="none" stroke="black" stroke-width="2.6" d="M859.69,-85.96C853.81,-81.04 848.43,-75.11 845.12,-68.25 842.41,-62.62 841.48,-56.19 841.55,-49.89"/>
<polygon fill="black" stroke="black" stroke-width="2.6" points="845.01,-50.45 842.62,-40.13 838.05,-49.69 845.01,-50.45"/>
<text xml:space="preserve" text-anchor="middle" x="854.12" y="-56.85" font-family="Times New Roman,serif" font-size="12.00">690</text>
</g>
<!-- 1832766735436300587&#45;&gt;916221093654665324 -->
<g id="edge14" class="edge">
<title>1832766735436300587&#45;&gt;916221093654665324</title>
<path fill="none" stroke="black" d="M877.62,-122.67C870.01,-133.08 859.22,-145.91 847.12,-154.5 840.28,-159.36 832.68,-163.66 824.86,-167.43"/>
<polygon fill="black" stroke="black" points="823.59,-164.16 815.91,-171.46 826.46,-170.55 823.59,-164.16"/>
<text xml:space="preserve" text-anchor="middle" x="865.97" y="-143.1" font-family="Times New Roman,serif" font-size="12.00">3</text>
</g>
<!-- 4850159714100904719 -->
<g id="node9" class="node">
<title>4850159714100904719</title>
<polygon fill="#d0d0ff" stroke="black" points="330.75,-36 201.5,-36 201.5,0 330.75,0 330.75,-36"/>
<text xml:space="preserve" text-anchor="middle" x="266.12" y="-13.72" font-family="Times New Roman,serif" font-size="12.00">Payment Handled (613)</text>
</g>
<!-- &#45;2480901340329837493&#45;&gt;4850159714100904719 -->
<g id="edge15" class="edge">
<title>&#45;2480901340329837493&#45;&gt;4850159714100904719</title>
<path fill="none" stroke="black" stroke-width="2.42" d="M266.12,-85.79C266.12,-75.4 266.12,-61.92 266.12,-49.78"/>
<polygon fill="black" stroke="black" stroke-width="2.42" points="269.63,-50.1 266.13,-40.1 262.63,-50.1 269.63,-50.1"/>
<text xml:space="preserve" text-anchor="middle" x="275.12" y="-56.85" font-family="Times New Roman,serif" font-size="12.00">613</text>
</g>
</g>
</svg>
