<?xml version="1.0" encoding="UTF-8" standalone="no"?>
<!DOCTYPE svg PUBLIC "-//W3C//DTD SVG 1.1//EN"
 "http://www.w3.org/Graphics/SVG/1.1/DTD/svg11.dtd">
<!-- Generated by graphviz version 14.1.2 (20260124.0452)
 -->
<!-- Pages: 1 -->
<svg width="445pt" height="217pt"
 viewBox="0.00 0.00 445.00 217.00" xmlns="http://www.w3.org/2000/svg" xmlns:xlink="http://www.w3.org/1999/xlink">
<g id="graph0" class="graph" transform="scale(1 1) rotate(0) translate(4 212.5)">
<polygon fill="white" stroke="none" points="-4,4 -4,-212.5 440.5,-212.5 440.5,4 -4,4"/>
<!-- &#45;4323116016321864061 -->
<g id="node1" class="node">
<title>&#45;4323116016321864061</title>
<polygon fill="#9b9bff" stroke="black" points="413.38,-208.5 106.38,-208.5 106.38,-172.5 413.38,-172.5 413.38,-208.5"/>
<text xml:space="preserve" text-anchor="middle" x="259.88" y="-186.22" font-family="Times New Roman,serif" font-size="12.00">Declaration FINAL_APPROVED by SUPERVISOR (1476)</text>
</g>
<!-- &#45;7155182592759498368 -->
<g id="node2" class="node">
<title>&#45;7155182592759498368</title>
<polygon fill="#ffffff" stroke="black" points="223.75,-122.25 0,-122.25 0,-86.25 223.75,-86.25 223.75,-122.25"/>
<text xml:space="preserve" text-anchor="middle" x="111.88" y="-99.97" font-family="Times New Roman,serif" font-size="12.00">Declaration REJECTED by MISSING (43)</text>
</g>
<!-- &#45;4323116016321864061&#45;&gt;&#45;7155182592759498368 -->
<g id="edge1" class="edge">
<title>&#45;4323116016321864061&#45;&gt;&#45;7155182592759498368</title>
<path fill="none" stroke="black" d="M229.21,-172.04C206.98,-159.39 176.71,-142.16 152.47,-128.36"/>
<polygon fill="black" stroke="black" points="154.24,-125.34 143.82,-123.43 150.78,-131.42 154.24,-125.34"/>
<text xml:space="preserve" text-anchor="middle" x="200.74" y="-143.1" font-family="Times New Roman,serif" font-size="12.00">43</text>
</g>
<!-- &#45;2480901340329837493 -->
<g id="node5" class="node">
<title>&#45;2480901340329837493</title>
<polygon fill="#9e9eff" stroke="black" points="435.38,-122.25 302.38,-122.25 302.38,-86.25 435.38,-86.25 435.38,-122.25"/>
<text xml:space="preserve" text-anchor="middle" x="368.88" y="-99.97" font-family="Times New Roman,serif" font-size="12.00">Request Payment (1433)</text>
</g>
<!-- &#45;4323116016321864061&#45;&gt;&#45;2480901340329837493 -->
<g id="edge2" class="edge">
<title>&#45;4323116016321864061&#45;&gt;&#45;2480901340329837493</title>
<path fill="none" stroke="black" stroke-width="2.55" d="M282.46,-172.04C297.81,-160.18 318.36,-144.29 335.58,-130.99"/>
<polygon fill="black" stroke="black" stroke-width="2.55" points="337.49,-133.93 343.26,-125.05 333.21,-128.39 337.49,-133.93"/>
<text xml:space="preserve" text-anchor="middle" x="332.9" y="-143.1" font-family="Times New Roman,serif" font-size="12.00">1433</text>
</g>
<!-- 1832766735436300587 -->
<g id="node3" class="node">
<title>1832766735436300587</title>
<polygon fill="#9b9bff" stroke="black" points="273.5,-36 12.25,-36 12.25,0 273.5,0 273.5,-36"/>
<text xml:space="preserve" text-anchor="middle" x="142.88" y="-13.72" font-family="Times New Roman,serif" font-size="12.00">Declaration SUBMITTED by EMPLOYEE (1476)</text>
</g>
<!-- &#45;7155182592759498368&#45;&gt;1832766735436300587 -->
<g id="edge3" class="edge">
<title>&#45;7155182592759498368&#45;&gt;1832766735436300587</title>
<path fill="none" stroke="black" d="M118.3,-85.79C122.41,-74.61 127.85,-59.84 132.56,-47.04"/>
<polygon fill="black" stroke="black" points="135.77,-48.45 135.94,-37.85 129.2,-46.03 135.77,-48.45"/>
<text xml:space="preserve" text-anchor="middle" x="135.23" y="-56.85" font-family="Times New Roman,serif" font-size="12.00">43</text>
</g>
<!-- 1832766735436300587&#45;&gt;&#45;4323116016321864061 -->
<g id="edge4" class="edge">
<title>1832766735436300587&#45;&gt;&#45;4323116016321864061</title>
<path fill="none" stroke="black" stroke-width="2.6" d="M176.09,-36.28C195.37,-47.94 218.61,-65.05 232.88,-86.25 247.42,-107.86 254.13,-136.86 257.23,-158.63"/>
<polygon fill="black" stroke="black" stroke-width="2.6" points="253.74,-158.93 258.38,-168.46 260.69,-158.11 253.74,-158.93"/>
<text xml:space="preserve" text-anchor="middle" x="261.01" y="-99.97" font-family="Times New Roman,serif" font-size="12.00">1476</text>
</g>
<!-- 4850159714100904719 -->
<g id="node4" class="node">
<title>4850159714100904719</title>
<polygon fill="#9e9eff" stroke="black" points="436.5,-36 301.25,-36 301.25,0 436.5,0 436.5,-36"/>
<text xml:space="preserve" text-anchor="middle" x="368.88" y="-13.72" font-family="Times New Roman,serif" font-size="12.00">Payment Handled (1433)</text>
</g>
<!-- &#45;2480901340329837493&#45;&gt;4850159714100904719 -->
<g id="edge5" class="edge">
<title>&#45;2480901340329837493&#45;&gt;4850159714100904719</title>
<path fill="none" stroke="black" stroke-width="2.55" d="M368.88,-85.79C368.88,-75.51 368.88,-62.21 368.88,-50.18"/>
<polygon fill="black" stroke="black" stroke-width="2.55" points="372.38,-50.3 368.88,-40.3 365.38,-50.3 372.38,-50.3"/>
<text xml:space="preserve" text-anchor="middle" x="380.88" y="-56.85" font-family="Times New Roman,serif" font-size="12.00">1433</text>
</g>
</g>
</svg>
