<?xml version="1.0" encoding="UTF-8" standalone="no"?>
<!DOCTYPE svg PUBLIC "-//W3C//DTD SVG 1.1//EN"
 "http://www.w3.org/Graphics/SVG/1.1/DTD/svg11.dtd">
<!-- Generated by graphviz version 14.1.2 (20260124.0452)
 -->
<!-- Pages: 1 -->
<svg width="469pt" height="303pt"
 viewBox="0.00 0.00 469.00 303.00" xmlns="http://www.w3.org/2000/svg" xmlns:xlink="http://www.w3.org/1999/xlink">
<g id="graph0" class="graph" transform="scale(1 1) rotate(0) translate(4 298.75)">
<polygon fill="white" stroke="none" points="-4,4 -4,-298.75 465.25,-298.75 465.25,4 -4,4"/>
<!-- &#45;6062701120857442117 -->
<g id="node1" class="node">
<title>&#45;6062701120857442117</title>
<polygon fill="#9b9bff" stroke="black" points="440.5,-294.75 162.75,-294.75 162.75,-258.75 440.5,-258.75 440.5,-294.75"/>
<text xml:space="preserve" text-anchor="middle" x="301.62" y="-272.48" font-family="Times New Roman,serif" font-size="12.00">Declaration APPROVED by PRE_APPROVER (592)</text>
</g>
<!-- &#45;4323116016321864061 -->
<g id="node2" class="node">
<title>&#45;4323116016321864061</title>
<polygon fill="#9b9bff" stroke="black" points="363.12,-208.5 62.12,-208.5 62.12,-172.5 363.12,-172.5 363.12,-208.5"/>
<text xml:space="preserve" text-anchor="middle" x="212.62" y="-186.22" font-family="Times New Roman,serif" font-size="12.00">Declaration FINAL_APPROVED by SUPERVISOR (592)</text>
</g>
<!-- &#45;6062701120857442117&#45;&gt;&#45;4323116016321864061 -->
<g id="edge1" class="edge">
<title>&#45;6062701120857442117&#45;&gt;&#45;4323116016321864061</title>
<path fill="none" stroke="black" stroke-width="2.6" d="M283.18,-258.29C271.01,-246.77 254.82,-231.45 241.02,-218.38"/>
<polygon fill="black" stroke="black" stroke-width="2.6" points="243.57,-215.97 233.9,-211.64 238.76,-221.06 243.57,-215.97"/>
<text xml:space="preserve" text-anchor="middle" x="271.45" y="-229.35" font-family="Times New Roman,serif" font-size="12.00">592</text>
</g>
<!-- &#45;7155182592759498368 -->
<g id="node3" class="node">
<title>&#45;7155182592759498368</title>
<polygon fill="#ffffff" stroke="black" points="363.5,-122.25 145.75,-122.25 145.75,-86.25 363.5,-86.25 363.5,-122.25"/>
<text xml:space="preserve" text-anchor="middle" x="254.62" y="-99.97" font-family="Times New Roman,serif" font-size="12.00">Declaration REJECTED by MISSING (9)</text>
</g>
<!-- &#45;4323116016321864061&#45;&gt;&#45;7155182592759498368 -->
<g id="edge2" class="edge">
<title>&#45;4323116016321864061&#45;&gt;&#45;7155182592759498368</title>
<path fill="none" stroke="black" d="M221.33,-172.04C226.96,-160.75 234.41,-145.8 240.84,-132.9"/>
<polygon fill="black" stroke="black" points="243.93,-134.55 245.26,-124.04 237.66,-131.43 243.93,-134.55"/>
<text xml:space="preserve" text-anchor="middle" x="239.14" y="-143.1" font-family="Times New Roman,serif" font-size="12.00">9</text>
</g>
<!-- &#45;2480901340329837493 -->
<g id="node6" class="node">
<title>&#45;2480901340329837493</title>
<polygon fill="#9c9cff" stroke="black" points="128.12,-122.25 1.12,-122.25 1.12,-86.25 128.12,-86.25 128.12,-122.25"/>
<text xml:space="preserve" text-anchor="middle" x="64.62" y="-99.97" font-family="Times New Roman,serif" font-size="12.00">Request Payment (583)</text>
</g>
<!-- &#45;4323116016321864061&#45;&gt;&#45;2480901340329837493 -->
<g id="edge3" class="edge">
<title>&#45;4323116016321864061&#45;&gt;&#45;2480901340329837493</title>
<path fill="none" stroke="black" stroke-width="2.58" d="M181.96,-172.04C160.33,-159.73 131.07,-143.08 107.18,-129.48"/>
<polygon fill="black" stroke="black" stroke-width="2.58" points="109.06,-126.52 98.64,-124.61 105.6,-132.6 109.06,-126.52"/>
<text xml:space="preserve" text-anchor="middle" x="156.49" y="-143.1" font-family="Times New Roman,serif" font-size="12.00">583</text>
</g>
<!-- 1832766735436300587 -->
<g id="node4" class="node">
<title>1832766735436300587</title>
<polygon fill="#9b9bff" stroke="black" points="461.25,-36 206,-36 206,0 461.25,0 461.25,-36"/>
<text xml:space="preserve" text-anchor="middle" x="333.62" y="-13.72" font-family="Times New Roman,serif" font-size="12.00">Declaration SUBMITTED by EMPLOYEE (592)</text>
</g>
<!-- &#45;7155182592759498368&#45;&gt;1832766735436300587 -->
<g id="edge4" class="edge">
<title>&#45;7155182592759498368&#45;&gt;1832766735436300587</title>
<path fill="none" stroke="black" d="M270.99,-85.79C282.12,-73.93 297.02,-58.04 309.49,-44.74"/>
<polygon fill="black" stroke="black" points="311.95,-47.23 316.24,-37.54 306.85,-42.44 311.95,-47.23"/>
<text xml:space="preserve" text-anchor="middle" x="301.85" y="-56.85" font-family="Times New Roman,serif" font-size="12.00">9</text>
</g>
<!-- 1832766735436300587&#45;&gt;&#45;6062701120857442117 -->
<g id="edge5" class="edge">
<title>1832766735436300587&#45;&gt;&#45;6062701120857442117</title>
<path fill="none" stroke="black" stroke-width="2.6" d="M347.17,-36.39C356.35,-49.34 367.68,-67.87 372.62,-86.25 386.74,-138.72 394.1,-158.59 372.62,-208.5 365.65,-224.71 352.64,-238.83 339.65,-249.9"/>
<polygon fill="black" stroke="black" stroke-width="2.6" points="337.61,-247.06 331.95,-256.01 341.96,-252.54 337.61,-247.06"/>
<text xml:space="preserve" text-anchor="middle" x="395.11" y="-143.1" font-family="Times New Roman,serif" font-size="12.00">592</text>
</g>
<!-- 4850159714100904719 -->
<g id="node5" class="node">
<title>4850159714100904719</title>
<polygon fill="#9c9cff" stroke="black" points="129.25,-36 0,-36 0,0 129.25,0 129.25,-36"/>
<text xml:space="preserve" text-anchor="middle" x="64.62" y="-13.72" font-family="Times New Roman,serif" font-size="12.00">Payment Handled (583)</text>
</g>
<!-- &#45;2480901340329837493&#45;&gt;4850159714100904719 -->
<g id="edge6" class="edge">
<title>&#45;2480901340329837493&#45;&gt;4850159714100904719</title>
<path fill="none" stroke="black" stroke-width="2.58" d="M64.62,-85.79C64.62,-75.51 64.62,-62.21 64.62,-50.18"/>
<polygon fill="black" stroke="black" stroke-width="2.58" points="68.13,-50.33 64.63,-40.33 61.13,-50.33 68.13,-50.33"/>
<text xml:space="preserve" text-anchor="middle" x="73.62" y="-56.85" font-family="Times New Roman,serif" font-size="12.00">583</text>
</g>
</g>
</svg>
